<svg width="400" height="400" viewBox="0 0 400 400" fill="none" xmlns="http://www.w3.org/2000/svg">
<rect width="400" height="400" fill="black"/>
<path fill-rule="evenodd" clip-rule="evenodd" d="M93.326 196.694C94.12 206.985 94.12 211.81 94.12 217.076H70.5247C70.5247 215.929 70.545 214.879 70.5653 213.815C70.6291 210.508 70.6958 207.059 70.1647 200.093C69.4631 189.895 65.1117 187.629 57.1105 187.629H50.0216H20V169.075H58.2335C68.3401 169.075 73.3931 165.972 73.3931 157.757C73.3931 150.534 68.3401 146.156 58.2335 146.156H20V128H62.4443C85.3248 128 96.6951 138.906 96.6951 156.327C96.6951 169.358 88.6939 177.856 77.8852 179.272C87.0094 181.114 92.3431 186.354 93.326 196.694Z" fill="white"/>
<path d="M20 217.076V203.244H44.9488C49.1161 203.244 50.0206 206.364 50.0206 208.223V217.076H20Z" fill="white"/>
<path d="M378.039 154.87H354.654L344.011 169.848L333.649 154.87H308.582L331.128 185.815L306.622 217.889H330.008L342.471 200.792L354.934 217.889H380L355.354 184.825L378.039 154.87Z" fill="white"/>
<path d="M230.738 165.314C228.077 157.966 222.336 152.88 211.273 152.88C201.891 152.88 195.169 157.119 191.808 164.042V154.575H169.123V217.594H191.808V186.65C191.808 177.183 194.469 170.966 201.891 170.966C208.753 170.966 210.433 175.487 210.433 184.107V217.594H233.119V186.65C233.119 177.183 235.639 170.966 243.201 170.966C250.063 170.966 251.603 175.487 251.603 184.107V217.594H274.289V178.031C274.289 164.89 269.248 152.88 252.023 152.88C241.521 152.88 234.099 158.249 230.738 165.314Z" fill="white"/>
<path d="M145.501 193.137C143.4 198.083 139.479 200.202 133.318 200.202C126.456 200.202 120.854 196.528 120.294 188.757H164.125V182.399C164.125 165.302 153.062 150.889 132.197 150.889C112.732 150.889 98.1689 165.16 98.1689 185.083C98.1689 205.147 112.453 217.299 132.477 217.299C149.001 217.299 160.484 209.245 163.705 194.833L145.501 193.137ZM120.574 177.736C121.414 171.801 124.635 167.28 131.917 167.28C138.639 167.28 142.279 172.084 142.56 177.736H120.574Z" fill="white"/>
<path d="M281.709 154.994V218.012H304.394V154.994H281.709ZM281.569 149.059H304.534V128.995H281.569V149.059Z" fill="white"/>
<g filter="url(#filter0_f_7_235)">
<path d="M73.4917 255.711C68.7871 255.711 64.9097 255.062 61.8595 253.765C58.8093 252.519 56.5604 250.78 55.1128 248.548C53.6653 246.317 52.9415 243.799 52.9415 240.997C52.9415 237.779 53.8204 234.301 55.5781 230.564C57.3359 226.775 59.8691 223.064 63.1778 219.431C63.1778 219.431 63.2037 219.405 63.2554 219.353C61.6527 218.782 60.1534 218.133 58.7576 217.407C57.3617 216.68 56.121 215.85 55.0353 214.915C53.7945 213.877 52.8639 212.735 52.2436 211.49C51.6232 210.244 51.313 209.05 51.313 207.908C51.313 206.248 51.9334 204.846 53.1741 203.704C54.4149 202.511 56.3019 201.914 58.8351 201.914C59.6623 201.914 60.5412 201.992 61.4718 202.147C62.4023 202.251 63.3846 202.459 64.4186 202.77C65.1424 202.978 65.5042 203.419 65.5042 204.094C65.5042 204.457 65.2975 204.82 64.8839 205.184C64.522 205.495 64.0567 205.547 63.488 205.339C61.7819 204.872 60.3085 204.639 59.0678 204.639C57.5168 204.639 56.3277 204.95 55.5006 205.573C54.7251 206.196 54.3374 206.974 54.3374 207.908C54.3374 209.31 55.2162 210.919 56.974 212.735C58.7834 214.5 61.5752 215.979 65.3491 217.173C68.4511 214.111 71.9924 211.36 75.9732 208.921C80.0057 206.429 84.3484 204.457 89.0012 203.004C93.6541 201.55 98.5138 200.824 103.58 200.824C108.492 200.824 112.162 201.654 114.592 203.315C117.022 204.976 118.237 206.896 118.237 209.076C118.237 211.152 117.151 213.254 114.98 215.382C112.86 217.459 109.681 219.042 105.441 220.132C102.753 220.806 99.5995 221.377 95.9806 221.844C92.4134 222.26 88.7169 222.467 84.8912 222.467C81.6859 222.467 78.4806 222.312 75.2753 222C72.1217 221.637 69.1231 221.066 66.2797 220.287C63.1261 223.661 60.6187 227.164 58.7576 230.798C56.9481 234.379 56.0434 237.727 56.0434 240.841C56.0434 244.318 57.3876 247.225 60.0759 249.561C62.7642 251.896 67.1586 253.064 73.259 253.064C74.0345 253.064 74.8617 253.012 75.7406 252.908C76.6194 252.856 77.5242 252.804 78.4547 252.753C81.66 252.389 85.098 251.481 88.7686 250.028C92.4909 248.626 96.1615 246.732 99.7804 244.344C103.451 241.905 106.811 239.102 109.862 235.936C110.224 235.573 113.061 232.822 113.423 232.822C113.785 232.822 112.751 235.287 112.957 235.547C113.216 235.806 112.188 236.351 112.188 236.715C112.188 237.078 112.033 237.415 111.723 237.727C108.776 241.048 105.364 243.981 101.486 246.524C97.6608 249.119 93.7575 251.17 89.7767 252.675C85.7959 254.232 82.0736 255.166 78.6098 255.477C76.8521 255.633 75.146 255.711 73.4917 255.711ZM68.5286 218.107C71.0101 218.626 73.5692 219.016 76.2058 219.275C78.8942 219.535 81.5825 219.664 84.2708 219.664C88.4067 219.664 92.2841 219.431 95.903 218.964C99.5736 218.497 102.443 217.978 104.511 217.407C108.181 216.472 110.87 215.279 112.576 213.825C114.334 212.372 115.212 210.945 115.212 209.543C115.212 207.934 114.204 206.559 112.188 205.417C110.172 204.223 107.303 203.627 103.58 203.627C98.9791 203.627 94.5588 204.275 90.3196 205.573C86.0803 206.819 82.0995 208.531 78.3772 210.711C74.7066 212.891 71.4237 215.357 68.5286 218.107Z" fill="black" fill-opacity="0.1"/>
<path d="M115.051 247.381C113.294 247.381 112.053 246.888 111.329 245.901C110.605 244.863 110.243 243.592 110.243 242.087C110.243 240.841 110.424 239.491 110.786 238.038C111.2 236.533 111.717 235.054 112.337 233.6C112.389 231.576 112.932 229.578 113.966 227.606C115.051 225.633 116.499 223.998 118.308 222.701C120.169 221.403 122.341 220.754 124.822 220.754C127.252 220.754 128.932 221.455 129.863 222.857C130.845 224.258 131.336 225.919 131.336 227.839C131.336 228.981 131.207 230.149 130.949 231.343C130.69 232.484 130.354 233.574 129.94 234.612C129.527 235.651 129.01 236.715 128.389 237.805C127.769 238.843 127.071 239.881 126.296 240.919C127.847 240.659 129.191 240.166 130.328 239.439C131.517 238.661 132.706 237.597 133.895 236.247C135.084 234.898 136.48 233.185 138.083 231.109C138.393 230.746 138.729 230.564 139.091 230.564C139.505 230.564 139.841 230.694 140.099 230.953C140.409 231.213 140.564 231.55 140.564 231.965C140.564 232.277 140.461 232.562 140.254 232.822C138.755 234.898 137.23 236.766 135.679 238.427C134.18 240.088 132.474 241.386 130.561 242.32C128.648 243.254 126.347 243.721 123.659 243.721C122.418 244.811 121.074 245.694 119.627 246.368C118.179 247.043 116.654 247.381 115.051 247.381ZM119.549 227.216C118.929 227.683 118.179 228.618 117.3 230.019C116.421 231.42 115.62 232.952 114.896 234.612C115 236.221 115.646 237.675 116.835 238.972C118.076 240.218 119.963 240.919 122.496 241.074C124.357 239.258 125.856 237.13 126.994 234.69C128.131 232.199 128.7 229.967 128.7 227.995C128.7 226.645 128.389 225.555 127.769 224.725C127.149 223.895 126.166 223.479 124.822 223.479C123.892 223.479 122.987 223.635 122.108 223.946C121.229 224.258 120.428 224.673 119.704 225.192C119.963 225.452 120.092 225.763 120.092 226.126C120.092 226.542 119.911 226.905 119.549 227.216ZM112.957 241.931C112.957 242.761 113.113 243.436 113.423 243.955C113.785 244.422 114.327 244.656 115.051 244.656C116.551 244.656 118.076 244.189 119.627 243.254C118.127 242.891 116.861 242.32 115.827 241.542C114.793 240.711 113.991 239.777 113.423 238.739C113.113 239.984 112.957 241.048 112.957 241.931Z" fill="black" fill-opacity="0.1"/>
<path d="M168.279 233.445C168.537 233.445 168.77 233.6 168.977 233.912C169.235 234.171 169.364 234.509 169.364 234.924C169.364 235.391 169.235 235.78 168.977 236.092C168.201 237.182 167.116 238.401 165.72 239.751C164.376 241.048 163.186 242.087 162.152 242.865C160.188 244.318 158.068 245.408 155.794 246.135C154.656 246.498 153.415 246.758 152.071 246.913C150.727 247.069 149.383 247.147 148.039 247.147C146.901 247.718 145.79 248.159 144.704 248.471C143.67 248.834 142.636 249.016 141.602 249.016C140.672 249.016 139.793 248.782 138.966 248.315C138.19 247.9 137.596 247.225 137.182 246.291C137.13 246.135 137.079 245.979 137.027 245.824C136.975 245.668 136.924 245.512 136.872 245.356C136.045 247.381 135.037 249.664 133.848 252.208C132.71 254.803 131.392 257.424 129.893 260.071C128.342 262.718 126.61 265.209 124.697 267.545C122.732 269.932 120.561 271.957 118.183 273.617C116.89 274.552 115.495 275.019 113.995 275.019C113.065 275.019 112.289 274.759 111.669 274.24C110.997 273.773 110.661 273.021 110.661 271.983C110.661 269.958 111.255 267.83 112.444 265.598C113.633 263.419 115.184 261.213 117.097 258.981C119.01 256.801 121.078 254.673 123.301 252.597C125.472 250.521 127.566 248.574 129.582 246.758C131.599 244.993 133.279 243.436 134.623 242.087C134.985 241.464 135.476 240.503 136.096 239.206C136.717 237.908 137.363 236.455 138.035 234.846C138.759 233.185 139.405 231.498 139.974 229.786C140.594 228.073 141.059 226.49 141.37 225.036C141.68 223.583 141.757 222.415 141.602 221.533C141.499 220.806 141.628 220.235 141.99 219.82C142.404 219.405 142.869 219.197 143.386 219.197C143.748 219.197 144.058 219.353 144.316 219.664C144.627 219.924 144.782 220.339 144.782 220.91C144.782 222.363 144.472 224.232 143.851 226.516C143.283 228.799 142.559 231.187 141.68 233.678C142.662 232.536 143.851 231.239 145.247 229.786C146.695 228.28 148.297 226.879 150.055 225.581C151.037 224.855 152.097 224.154 153.234 223.479C154.424 222.753 155.561 222.156 156.647 221.689C157.732 221.222 158.611 220.988 159.283 220.988C160.938 220.988 162.049 221.481 162.618 222.467C163.238 223.453 163.548 224.595 163.548 225.893C163.548 227.865 163.006 229.993 161.92 232.277C160.886 234.509 159.49 236.715 157.732 238.894C155.975 241.022 154.036 242.917 151.916 244.578C152.381 244.526 152.795 244.474 153.157 244.422C153.571 244.318 153.932 244.24 154.243 244.189C155.742 243.773 157.112 243.151 158.353 242.32C159.645 241.438 160.912 240.452 162.152 239.362C163.186 238.479 164.143 237.545 165.022 236.559C165.901 235.573 166.728 234.664 167.503 233.834C167.71 233.574 167.969 233.445 168.279 233.445ZM159.361 223.557C158.585 223.557 157.448 223.998 155.949 224.881C154.501 225.763 152.847 226.957 150.986 228.462C149.124 229.915 147.212 231.55 145.247 233.367C143.283 235.132 141.447 236.922 139.741 238.739C139.483 239.414 139.198 240.088 138.888 240.763C138.578 241.438 138.294 242.087 138.035 242.709C137.983 242.813 137.932 242.943 137.88 243.099C137.828 243.202 137.777 243.332 137.725 243.488C137.983 243.332 138.216 243.254 138.423 243.254C138.681 243.254 138.992 243.384 139.353 243.644C139.715 243.903 140 244.085 140.206 244.189C141.24 244.708 142.274 245.019 143.308 245.123C144.342 245.175 145.48 245.097 146.72 244.889C148.53 243.955 150.262 242.657 151.916 240.997C153.571 239.284 155.044 237.467 156.336 235.547C157.681 233.626 158.74 231.784 159.516 230.019C160.291 228.254 160.679 226.801 160.679 225.659C160.679 225.088 160.627 224.595 160.524 224.18C160.421 223.765 160.033 223.557 159.361 223.557ZM117.562 270.581C120.613 267.571 123.43 264.067 126.015 260.071C128.548 256.126 130.771 252 132.684 247.692C132.167 248.107 131.288 248.86 130.048 249.95C128.755 251.092 127.308 252.441 125.705 253.998C124.051 255.555 122.422 257.242 120.819 259.059C119.165 260.927 117.743 262.796 116.554 264.664C115.314 266.585 114.461 268.427 113.995 270.192C113.944 270.4 113.918 270.659 113.918 270.97C113.918 271.749 114.228 272.138 114.848 272.138C115.624 272.138 116.529 271.619 117.562 270.581Z" fill="black" fill-opacity="0.1"/>
<path d="M171.642 247.225C170.039 247.225 168.669 246.732 167.532 245.746C166.446 244.759 165.903 243.047 165.903 240.607C165.903 238.946 166.317 237 167.144 234.768C168.023 232.536 169.186 230.382 170.634 228.306C172.081 226.178 173.684 224.44 175.442 223.09C177.199 221.689 178.983 220.988 180.792 220.988C181.982 220.988 182.86 221.429 183.429 222.312C184.049 223.142 184.36 224.154 184.36 225.348C184.36 227.113 183.791 228.825 182.654 230.486C181.516 232.147 180.069 233.497 178.311 234.535C176.605 235.573 174.899 236.092 173.193 236.092C171.797 236.092 170.737 235.651 170.013 234.768C169.6 235.806 169.264 236.818 169.005 237.805C168.747 238.791 168.617 239.725 168.617 240.607C168.617 242.112 168.928 243.176 169.548 243.799C170.22 244.37 171.047 244.656 172.03 244.656C173.219 244.656 174.537 244.344 175.984 243.721C177.484 243.099 178.88 242.372 180.172 241.542C181.465 240.659 182.421 239.933 183.041 239.362C184.075 238.479 185.058 237.519 185.988 236.481C186.97 235.391 187.823 234.379 188.547 233.445C188.806 233.133 189.09 232.978 189.4 232.978C189.71 232.978 189.969 233.133 190.176 233.445C190.434 233.704 190.563 234.042 190.563 234.457C190.563 234.82 190.434 235.183 190.176 235.547C189.349 236.585 188.315 237.779 187.074 239.128C185.885 240.426 184.541 241.645 183.041 242.787C182.214 243.462 181.154 244.137 179.862 244.811C178.569 245.486 177.199 246.057 175.752 246.524C174.356 246.991 172.986 247.225 171.642 247.225ZM173.038 233.6C174.072 233.6 175.183 233.263 176.372 232.588C177.613 231.914 178.699 231.031 179.629 229.941C180.611 228.799 181.258 227.58 181.568 226.282C181.62 226.178 181.645 226.049 181.645 225.893C181.645 225.737 181.645 225.607 181.645 225.504C181.645 224.569 181.309 224.102 180.637 224.102C179.552 224.102 178.414 224.517 177.225 225.348C176.036 226.126 174.899 227.19 173.813 228.54C172.779 229.837 171.849 231.265 171.021 232.822C171.228 232.978 171.435 233.133 171.642 233.289C171.849 233.393 172.055 233.471 172.262 233.523C172.366 233.574 172.495 233.6 172.65 233.6C172.805 233.6 172.934 233.6 173.038 233.6Z" fill="black" fill-opacity="0.1"/>
<path d="M187.115 247.848C186.753 247.848 186.417 247.718 186.107 247.458C185.797 247.199 185.642 246.888 185.642 246.524C185.642 246.42 185.693 246.213 185.797 245.901C186.831 243.67 187.839 241.645 188.821 239.829C189.855 237.96 190.915 236.144 192.001 234.379C192.466 233.652 192.983 232.718 193.551 231.576C194.172 230.382 194.766 229.111 195.335 227.761C195.904 226.36 196.369 225.036 196.731 223.791C197.145 222.545 197.351 221.533 197.351 220.754C197.351 220.339 197.325 220.054 197.274 219.898C197.222 219.846 197.196 219.742 197.196 219.587C197.196 219.171 197.377 218.834 197.739 218.575C198.153 218.263 198.54 218.107 198.902 218.107C199.316 218.107 199.704 218.315 200.066 218.73C200.427 219.094 200.608 219.742 200.608 220.677C200.608 221.455 200.427 222.493 200.066 223.791C199.755 225.036 199.212 226.542 198.437 228.306C198.023 229.189 197.636 230.019 197.274 230.798C196.912 231.524 196.55 232.225 196.188 232.9C198.204 230.772 200.272 228.877 202.392 227.216C204.512 225.504 206.399 224.154 208.053 223.168C209.707 222.182 210.819 221.689 211.387 221.689C212.008 221.689 212.447 221.87 212.706 222.234C212.964 222.597 213.094 223.012 213.094 223.479C213.094 224.154 212.887 224.933 212.473 225.815C212.111 226.645 211.724 227.398 211.31 228.073C210.896 228.747 210.612 229.215 210.457 229.474C209.888 230.356 209.113 231.68 208.13 233.445C207.148 235.209 206.321 236.922 205.649 238.583C205.442 239.154 205.235 239.751 205.029 240.374C204.873 240.945 204.796 241.438 204.796 241.853C204.796 242.528 205.08 242.865 205.649 242.865C206.166 242.865 206.916 242.606 207.898 242.087C209.139 241.412 210.276 240.555 211.31 239.517C212.396 238.427 213.326 237.493 214.102 236.715C214.153 236.663 214.386 236.403 214.8 235.936C215.265 235.469 215.704 235.002 216.118 234.535C216.583 234.068 216.816 233.834 216.816 233.834C217.023 233.574 217.281 233.445 217.591 233.445C217.85 233.445 218.082 233.6 218.289 233.912C218.548 234.171 218.677 234.509 218.677 234.924C218.677 235.391 218.548 235.78 218.289 236.092C217.514 237.182 216.454 238.375 215.11 239.673C213.766 240.971 212.577 242.035 211.543 242.865C210.457 243.695 209.345 244.37 208.208 244.889C207.122 245.356 206.037 245.59 204.951 245.59C204.02 245.59 203.245 245.408 202.625 245.045C202.004 244.682 201.694 243.721 201.694 242.164C201.694 240.192 202.185 238.246 203.167 236.325C204.201 234.405 205.339 232.51 206.58 230.642C207.872 228.773 208.932 227.009 209.759 225.348C208.467 226.126 206.735 227.32 204.563 228.929C202.444 230.538 200.195 232.433 197.817 234.612C195.49 236.741 193.371 239.076 191.458 241.619C191.096 242.294 190.708 243.021 190.294 243.799C189.881 244.578 189.467 245.434 189.054 246.368C188.588 247.355 187.942 247.848 187.115 247.848Z" fill="black" fill-opacity="0.1"/>
<path d="M216.673 246.68C216.312 246.68 215.976 246.55 215.665 246.291C215.355 246.083 215.226 245.746 215.278 245.279C215.484 242.683 216.208 239.647 217.449 236.17C218.741 232.692 220.318 229.163 222.179 225.581C221.559 225.53 220.939 225.452 220.318 225.348C219.956 225.244 219.672 225.062 219.465 224.803C219.258 224.543 219.155 224.284 219.155 224.024C219.155 223.765 219.233 223.531 219.388 223.324C219.594 223.064 219.879 222.934 220.241 222.934C220.551 222.934 220.887 222.986 221.249 223.09C221.662 223.142 222.102 223.168 222.567 223.168C222.877 223.168 223.162 223.168 223.42 223.168C225.23 219.69 227.142 216.421 229.159 213.358C231.175 210.244 233.036 207.649 234.742 205.573C235.776 204.327 236.862 203.133 237.999 201.992C239.137 200.85 240.3 199.915 241.489 199.189C242.73 198.41 243.919 198.021 245.056 198.021C246.555 198.021 247.589 198.436 248.158 199.267C248.778 200.045 249.088 201.031 249.088 202.225C249.088 203.938 248.623 205.677 247.693 207.441C246.917 208.895 245.754 210.581 244.203 212.502C242.652 214.37 240.843 216.239 238.775 218.107C236.758 219.924 234.561 221.507 232.183 222.857C229.857 224.206 227.478 225.062 225.049 225.426C223.963 227.502 222.981 229.552 222.102 231.576C221.275 233.6 220.551 235.521 219.93 237.337C220.344 236.818 220.758 236.299 221.171 235.78C222.515 234.119 223.86 232.562 225.204 231.109C226.548 229.604 228.254 228.099 230.322 226.594C232.39 225.088 234.225 223.895 235.828 223.012C237.482 222.078 238.568 221.637 239.085 221.689C240.17 221.844 240.713 222.441 240.713 223.479C240.713 224.154 240.507 224.933 240.093 225.815C239.731 226.645 239.343 227.398 238.93 228.073C238.516 228.747 238.232 229.215 238.077 229.474C237.508 230.356 236.733 231.68 235.75 233.445C234.768 235.209 233.941 236.922 233.269 238.583C233.062 239.154 232.855 239.751 232.648 240.374C232.493 240.945 232.416 241.438 232.416 241.853C232.416 242.528 232.7 242.865 233.269 242.865C233.786 242.865 234.535 242.606 235.518 242.087C236.758 241.412 237.896 240.555 238.93 239.517C240.015 238.427 240.946 237.493 241.721 236.715C241.773 236.663 242.006 236.403 242.419 235.936C242.885 235.469 243.324 235.002 243.738 234.535C244.203 234.068 244.436 233.834 244.436 233.834C244.642 233.574 244.901 233.445 245.211 233.445C245.47 233.445 245.702 233.6 245.909 233.912C246.168 234.171 246.297 234.509 246.297 234.924C246.297 235.391 246.168 235.78 245.909 236.092C245.134 237.182 244.074 238.375 242.73 239.673C241.385 240.971 240.196 242.035 239.162 242.865C238.077 243.695 236.965 244.344 235.828 244.811C234.69 245.279 233.656 245.512 232.726 245.512C231.744 245.512 230.916 245.227 230.244 244.656C229.624 244.085 229.314 243.176 229.314 241.931C229.314 240.789 229.572 239.517 230.089 238.116C230.813 235.988 231.873 233.886 233.269 231.81C234.716 229.734 235.905 227.735 236.836 225.815C233.062 228.047 229.572 230.772 226.367 233.99C223.162 237.208 220.422 240.607 218.147 244.189C218.095 244.604 218.043 245.019 217.992 245.434C217.992 245.849 217.837 246.161 217.527 246.368C217.268 246.576 216.984 246.68 216.673 246.68ZM244.978 200.746C243.996 200.746 242.833 201.291 241.489 202.381C240.145 203.471 238.749 204.898 237.301 206.663C235.905 208.376 234.509 210.244 233.114 212.268C231.718 214.241 230.451 216.161 229.314 218.03C228.176 219.846 227.272 221.351 226.6 222.545C228.668 221.818 230.891 220.677 233.269 219.119C235.647 217.562 237.896 215.694 240.015 213.514C242.135 211.334 243.893 208.921 245.289 206.274C245.702 205.443 245.987 204.742 246.142 204.171C246.348 203.549 246.452 203.03 246.452 202.614C246.452 201.888 246.271 201.395 245.909 201.135C245.599 200.876 245.289 200.746 244.978 200.746Z" fill="black" fill-opacity="0.1"/>
<path d="M245.866 246.446C244.418 246.446 243.333 246.031 242.609 245.201C241.937 244.318 241.601 243.228 241.601 241.931C241.601 240.478 242.014 238.791 242.842 236.87C243.721 234.898 244.858 232.874 246.254 230.798C247.65 228.722 249.175 226.801 250.829 225.036C252.535 223.22 254.241 221.767 255.947 220.677C257.653 219.535 259.23 218.964 260.678 218.964C261.66 218.964 262.616 219.119 263.547 219.431C264.477 219.69 265.227 220.235 265.796 221.066C266.416 221.896 266.726 223.116 266.726 224.725C266.726 225.296 266.571 225.711 266.261 225.971C265.951 226.23 265.667 226.36 265.408 226.36C264.839 226.36 264.555 226.152 264.555 225.737C264.297 224.076 263.754 222.986 262.927 222.467C262.151 221.948 261.401 221.689 260.678 221.689C259.644 221.689 258.429 222.208 257.033 223.246C255.637 224.284 254.215 225.607 252.768 227.216C251.32 228.825 249.95 230.564 248.658 232.433C247.417 234.249 246.409 236.014 245.633 237.727C244.858 239.388 244.47 240.763 244.47 241.853C244.47 242.372 244.548 242.839 244.703 243.254C244.91 243.67 245.22 243.877 245.633 243.877C246.409 243.877 247.417 243.462 248.658 242.631C249.898 241.801 251.217 240.737 252.613 239.439C254.06 238.09 255.482 236.689 256.878 235.235C258.274 233.782 259.54 232.407 260.678 231.109C261.815 229.811 262.694 228.773 263.314 227.995C263.624 227.528 264.012 227.294 264.477 227.294C264.839 227.294 265.175 227.424 265.486 227.683C265.796 227.943 265.951 228.28 265.951 228.696C265.951 228.903 265.873 229.137 265.718 229.396C265.356 229.967 264.917 230.772 264.4 231.81C263.935 232.848 263.444 233.964 262.927 235.157C262.461 236.351 262.048 237.467 261.686 238.505C261.376 239.491 261.22 240.244 261.22 240.763C261.22 241.282 261.401 241.542 261.763 241.542C262.022 241.542 262.332 241.412 262.694 241.152C263.107 240.893 263.469 240.659 263.78 240.452C265.02 239.414 266.209 238.324 267.347 237.182C268.484 235.988 269.518 234.872 270.449 233.834C270.655 233.574 270.914 233.445 271.224 233.445C271.483 233.445 271.715 233.6 271.922 233.912C272.181 234.171 272.31 234.509 272.31 234.924C272.31 235.391 272.181 235.78 271.922 236.092C271.095 237.182 270.009 238.401 268.665 239.751C267.321 241.048 266.132 242.087 265.098 242.865C264.426 243.332 263.624 243.799 262.694 244.266C261.815 244.682 260.962 244.889 260.135 244.889C259.514 244.889 258.997 244.708 258.584 244.344C258.17 243.929 257.963 243.228 257.963 242.242C257.963 241.464 258.093 240.581 258.351 239.595C258.61 238.609 258.92 237.597 259.282 236.559C257.834 238.116 256.283 239.647 254.629 241.152C252.975 242.657 251.372 243.929 249.821 244.967C248.322 245.953 247.003 246.446 245.866 246.446Z" fill="black" fill-opacity="0.1"/>
<path d="M272.929 245.512C271.481 245.512 270.396 245.097 269.672 244.266C269 243.384 268.664 242.294 268.664 240.997C268.664 239.543 269.077 237.856 269.905 235.936C270.783 233.964 271.921 231.939 273.317 229.863C274.713 227.787 276.238 225.867 277.892 224.102C279.598 222.286 281.304 220.832 283.01 219.742C284.716 218.6 286.293 218.03 287.741 218.03C291.773 218.03 293.789 219.872 293.789 223.557C293.789 224.232 293.634 224.725 293.324 225.036C293.014 225.296 292.704 225.426 292.393 225.426C291.98 225.426 291.721 225.218 291.618 224.803C291.411 223.142 290.894 222.052 290.067 221.533C289.24 221.014 288.464 220.754 287.741 220.754C286.707 220.754 285.492 221.273 284.096 222.312C282.7 223.35 281.278 224.673 279.831 226.282C278.383 227.891 277.013 229.63 275.721 231.498C274.48 233.315 273.472 235.08 272.696 236.792C271.921 238.453 271.533 239.829 271.533 240.919C271.533 241.438 271.611 241.905 271.766 242.32C271.973 242.735 272.283 242.943 272.696 242.943C273.472 242.943 274.48 242.528 275.721 241.697C276.961 240.867 278.306 239.803 279.753 238.505C281.201 237.208 282.622 235.832 284.018 234.379C285.466 232.926 286.732 231.55 287.818 230.253C288.956 228.955 289.809 227.891 290.377 227.061C290.636 226.645 290.972 226.438 291.385 226.438C292.213 226.438 292.626 226.931 292.626 227.917C292.626 228.021 292.6 228.151 292.549 228.306C292.549 228.41 292.523 228.54 292.471 228.696C291.954 230.668 291.179 233.004 290.145 235.702C289.162 238.401 288.051 241.204 286.81 244.111C287.275 244.163 287.766 244.266 288.283 244.422C288.956 244.578 289.292 244.993 289.292 245.668C289.292 246.031 289.111 246.394 288.749 246.758C288.439 247.121 288.025 247.225 287.508 247.069C287.146 246.965 286.784 246.888 286.422 246.836C286.112 246.784 285.854 246.758 285.647 246.758C284.096 250.131 282.493 253.375 280.839 256.49C279.185 259.656 277.634 262.329 276.186 264.509C274.894 266.377 273.446 268.168 271.843 269.88C270.241 271.645 268.535 273.073 266.725 274.162C264.916 275.252 263.08 275.797 261.219 275.797C259.151 275.797 257.549 275.278 256.411 274.24C255.274 273.202 254.705 271.827 254.705 270.114C254.705 268.557 255.119 266.818 255.946 264.898C256.721 262.977 257.807 261.057 259.203 259.137C260.909 256.801 263.029 254.517 265.562 252.285C268.147 250.054 270.99 248.185 274.092 246.68C277.194 245.227 280.425 244.37 283.786 244.111C284.613 242.19 285.388 240.374 286.112 238.661C286.836 236.896 287.456 235.287 287.973 233.834C284.768 237.519 281.821 240.4 279.133 242.476C276.496 244.5 274.428 245.512 272.929 245.512ZM257.575 269.803C257.575 270.737 257.859 271.515 258.428 272.138C258.996 272.761 260.004 273.072 261.452 273.072C263.21 273.072 265.019 272.294 266.88 270.737C268.741 269.232 270.577 267.207 272.386 264.664C274.247 262.121 276.031 259.318 277.737 256.256C279.443 253.194 281.02 250.08 282.467 246.913C279.624 247.329 276.884 248.211 274.247 249.561C271.611 250.962 269.181 252.623 266.958 254.543C264.786 256.515 262.951 258.566 261.452 260.694C261.038 261.265 260.521 262.069 259.901 263.107C259.281 264.197 258.738 265.313 258.272 266.455C257.807 267.649 257.575 268.765 257.575 269.803Z" fill="black" fill-opacity="0.1"/>
<path d="M301.898 247.225C300.295 247.225 298.925 246.732 297.788 245.746C296.702 244.759 296.159 243.047 296.159 240.607C296.159 238.946 296.573 237 297.4 234.768C298.279 232.536 299.442 230.382 300.89 228.306C302.337 226.178 303.94 224.44 305.698 223.09C307.456 221.689 309.239 220.988 311.049 220.988C312.238 220.988 313.117 221.429 313.685 222.312C314.306 223.142 314.616 224.154 314.616 225.348C314.616 227.113 314.047 228.825 312.91 230.486C311.772 232.147 310.325 233.497 308.567 234.535C306.861 235.573 305.155 236.092 303.449 236.092C302.053 236.092 300.993 235.651 300.269 234.768C299.856 235.806 299.52 236.818 299.261 237.805C299.003 238.791 298.874 239.725 298.874 240.607C298.874 242.112 299.184 243.176 299.804 243.799C300.476 244.37 301.303 244.656 302.286 244.656C303.475 244.656 304.793 244.344 306.241 243.721C307.74 243.099 309.136 242.372 310.428 241.542C311.721 240.659 312.677 239.933 313.298 239.362C314.331 238.479 315.314 237.519 316.244 236.481C317.227 235.391 318.08 234.379 318.803 233.445C319.062 233.133 319.346 232.978 319.656 232.978C319.967 232.978 320.225 233.133 320.432 233.445C320.69 233.704 320.82 234.042 320.82 234.457C320.82 234.82 320.69 235.183 320.432 235.547C319.605 236.585 318.571 237.779 317.33 239.128C316.141 240.426 314.797 241.645 313.298 242.787C312.47 243.462 311.41 244.137 310.118 244.811C308.826 245.486 307.456 246.057 306.008 246.524C304.612 246.991 303.242 247.225 301.898 247.225ZM303.294 233.6C304.328 233.6 305.439 233.263 306.628 232.588C307.869 231.914 308.955 231.031 309.885 229.941C310.868 228.799 311.514 227.58 311.824 226.282C311.876 226.178 311.902 226.049 311.902 225.893C311.902 225.737 311.902 225.607 311.902 225.504C311.902 224.569 311.566 224.102 310.894 224.102C309.808 224.102 308.67 224.517 307.481 225.348C306.292 226.126 305.155 227.19 304.069 228.54C303.035 229.837 302.105 231.265 301.278 232.822C301.484 232.978 301.691 233.133 301.898 233.289C302.105 233.393 302.312 233.471 302.518 233.523C302.622 233.574 302.751 233.6 302.906 233.6C303.061 233.6 303.19 233.6 303.294 233.6Z" fill="black" fill-opacity="0.1"/>
<path d="M317.371 247.848C317.009 247.848 316.673 247.718 316.363 247.458C316.053 247.199 315.898 246.888 315.898 246.524C315.898 246.42 315.949 246.213 316.053 245.901C317.087 243.67 318.095 241.645 319.077 239.829C320.111 237.96 321.171 236.144 322.257 234.379C322.722 233.652 323.239 232.718 323.808 231.576C324.428 230.382 325.023 229.111 325.591 227.761C326.16 226.36 326.625 225.036 326.987 223.791C327.401 222.545 327.607 221.533 327.607 220.754C327.607 220.339 327.582 220.054 327.53 219.898C327.478 219.846 327.452 219.742 327.452 219.587C327.452 219.171 327.633 218.834 327.995 218.575C328.409 218.263 328.797 218.107 329.158 218.107C329.572 218.107 329.96 218.315 330.322 218.73C330.684 219.094 330.864 219.742 330.864 220.677C330.864 221.455 330.684 222.493 330.322 223.791C330.011 225.036 329.469 226.542 328.693 228.306C328.28 229.189 327.892 230.019 327.53 230.798C327.168 231.524 326.806 232.225 326.444 232.9C328.461 230.772 330.528 228.877 332.648 227.216C334.768 225.504 336.655 224.154 338.309 223.168C339.963 222.182 341.075 221.689 341.644 221.689C342.264 221.689 342.703 221.87 342.962 222.234C343.22 222.597 343.35 223.012 343.35 223.479C343.35 224.154 343.143 224.933 342.729 225.815C342.367 226.645 341.98 227.398 341.566 228.073C341.153 228.747 340.868 229.215 340.713 229.474C340.144 230.356 339.369 231.68 338.387 233.445C337.404 235.209 336.577 236.922 335.905 238.583C335.698 239.154 335.492 239.751 335.285 240.374C335.13 240.945 335.052 241.438 335.052 241.853C335.052 242.528 335.336 242.865 335.905 242.865C336.422 242.865 337.172 242.606 338.154 242.087C339.395 241.412 340.532 240.555 341.566 239.517C342.652 238.427 343.582 237.493 344.358 236.715C344.41 236.663 344.642 236.403 345.056 235.936C345.521 235.469 345.96 235.002 346.374 234.535C346.839 234.068 347.072 233.834 347.072 233.834C347.279 233.574 347.537 233.445 347.847 233.445C348.106 233.445 348.339 233.6 348.545 233.912C348.804 234.171 348.933 234.509 348.933 234.924C348.933 235.391 348.804 235.78 348.545 236.092C347.77 237.182 346.71 238.375 345.366 239.673C344.022 240.971 342.833 242.035 341.799 242.865C340.713 243.695 339.602 244.37 338.464 244.889C337.379 245.356 336.293 245.59 335.207 245.59C334.277 245.59 333.501 245.408 332.881 245.045C332.26 244.682 331.95 243.721 331.95 242.164C331.95 240.192 332.441 238.246 333.424 236.325C334.458 234.405 335.595 232.51 336.836 230.642C338.128 228.773 339.188 227.009 340.015 225.348C338.723 226.126 336.991 227.32 334.819 228.929C332.7 230.538 330.451 232.433 328.073 234.612C325.746 236.741 323.627 239.076 321.714 241.619C321.352 242.294 320.964 243.021 320.551 243.799C320.137 244.578 319.723 245.434 319.31 246.368C318.845 247.355 318.198 247.848 317.371 247.848Z" fill="black" fill-opacity="0.1"/>
</g>
<g filter="url(#filter1_ddddii_7_235)">
<path d="M73.4917 251.32C68.7871 251.32 64.9097 250.672 61.8595 249.374C58.8093 248.128 56.5604 246.39 55.1128 244.158C53.6653 241.926 52.9415 239.409 52.9415 236.606C52.9415 233.388 53.8204 229.91 55.5781 226.173C57.3359 222.385 59.8691 218.673 63.1778 215.04C63.1778 215.04 63.2037 215.014 63.2554 214.962C61.6527 214.392 60.1534 213.743 58.7576 213.016C57.3617 212.289 56.121 211.459 55.0353 210.525C53.7945 209.487 52.8639 208.345 52.2436 207.099C51.6232 205.853 51.313 204.66 51.313 203.518C51.313 201.857 51.9334 200.456 53.1741 199.314C54.4149 198.12 56.3019 197.523 58.8351 197.523C59.6623 197.523 60.5412 197.601 61.4718 197.757C62.4023 197.86 63.3846 198.068 64.4186 198.379C65.1424 198.587 65.5042 199.028 65.5042 199.703C65.5042 200.066 65.2975 200.43 64.8839 200.793C64.522 201.104 64.0567 201.156 63.488 200.949C61.7819 200.482 60.3085 200.248 59.0678 200.248C57.5168 200.248 56.3277 200.559 55.5006 201.182C54.7251 201.805 54.3374 202.584 54.3374 203.518C54.3374 204.919 55.2162 206.528 56.974 208.345C58.7834 210.11 61.5752 211.589 65.3491 212.783C68.4511 209.72 71.9924 206.969 75.9732 204.53C80.0057 202.039 84.3484 200.066 89.0012 198.613C93.6541 197.16 98.5138 196.433 103.58 196.433C108.492 196.433 112.162 197.264 114.592 198.924C117.022 200.585 118.237 202.506 118.237 204.686C118.237 206.762 117.151 208.864 114.98 210.992C112.86 213.068 109.681 214.651 105.441 215.741C102.753 216.416 99.5995 216.987 95.9806 217.454C92.4134 217.869 88.7169 218.077 84.8912 218.077C81.6859 218.077 78.4806 217.921 75.2753 217.609C72.1217 217.246 69.1231 216.675 66.2797 215.897C63.1261 219.27 60.6187 222.774 58.7576 226.407C56.9481 229.988 56.0434 233.336 56.0434 236.45C56.0434 239.928 57.3876 242.834 60.0759 245.17C62.7642 247.506 67.1586 248.673 73.259 248.673C74.0345 248.673 74.8617 248.621 75.7406 248.518C76.6194 248.466 77.5242 248.414 78.4547 248.362C81.66 247.999 85.098 247.09 88.7686 245.637C92.4909 244.236 96.1615 242.341 99.7804 239.954C103.451 237.514 106.811 234.711 109.862 231.545C110.224 231.182 113.061 228.431 113.423 228.431C113.785 228.431 112.751 230.897 112.957 231.156C113.216 231.416 112.188 231.961 112.188 232.324C112.188 232.687 112.033 233.025 111.723 233.336C108.776 236.658 105.364 239.59 101.486 242.134C97.6608 244.729 93.7575 246.779 89.7767 248.284C85.7959 249.841 82.0736 250.775 78.6098 251.087C76.8521 251.243 75.146 251.32 73.4917 251.32ZM68.5286 213.717C71.0101 214.236 73.5692 214.625 76.2058 214.885C78.8942 215.144 81.5825 215.274 84.2708 215.274C88.4067 215.274 92.2841 215.04 95.903 214.573C99.5736 214.106 102.443 213.587 104.511 213.016C108.181 212.082 110.87 210.888 112.576 209.435C114.334 207.982 115.212 206.554 115.212 205.153C115.212 203.544 114.204 202.168 112.188 201.027C110.172 199.833 107.303 199.236 103.58 199.236C98.9791 199.236 94.5588 199.885 90.3196 201.182C86.0803 202.428 82.0995 204.141 78.3772 206.321C74.7066 208.501 71.4237 210.966 68.5286 213.717Z" fill="white"/>
<path d="M115.051 242.99C113.294 242.99 112.053 242.497 111.329 241.511C110.605 240.473 110.243 239.201 110.243 237.696C110.243 236.45 110.424 235.101 110.786 233.647C111.2 232.142 111.717 230.663 112.337 229.21C112.389 227.186 112.932 225.187 113.966 223.215C115.051 221.243 116.499 219.608 118.308 218.31C120.169 217.013 122.341 216.364 124.822 216.364C127.252 216.364 128.932 217.065 129.863 218.466C130.845 219.867 131.336 221.528 131.336 223.449C131.336 224.59 131.207 225.758 130.949 226.952C130.69 228.094 130.354 229.184 129.94 230.222C129.527 231.26 129.01 232.324 128.389 233.414C127.769 234.452 127.071 235.49 126.296 236.528C127.847 236.269 129.191 235.775 130.328 235.049C131.517 234.27 132.706 233.206 133.895 231.857C135.084 230.507 136.48 228.795 138.083 226.718C138.393 226.355 138.729 226.173 139.091 226.173C139.505 226.173 139.841 226.303 140.099 226.563C140.409 226.822 140.564 227.16 140.564 227.575C140.564 227.886 140.461 228.172 140.254 228.431C138.755 230.507 137.23 232.376 135.679 234.037C134.18 235.698 132.474 236.995 130.561 237.929C128.648 238.864 126.347 239.331 123.659 239.331C122.418 240.421 121.074 241.303 119.627 241.978C118.179 242.653 116.654 242.99 115.051 242.99ZM119.549 222.826C118.929 223.293 118.179 224.227 117.3 225.628C116.421 227.03 115.62 228.561 114.896 230.222C115 231.831 115.646 233.284 116.835 234.582C118.076 235.827 119.963 236.528 122.496 236.684C124.357 234.867 125.856 232.739 126.994 230.3C128.131 227.808 128.7 225.577 128.7 223.604C128.7 222.255 128.389 221.165 127.769 220.334C127.149 219.504 126.166 219.089 124.822 219.089C123.892 219.089 122.987 219.244 122.108 219.556C121.229 219.867 120.428 220.282 119.704 220.802C119.963 221.061 120.092 221.372 120.092 221.736C120.092 222.151 119.911 222.514 119.549 222.826ZM112.957 237.54C112.957 238.371 113.113 239.045 113.423 239.564C113.785 240.032 114.327 240.265 115.051 240.265C116.551 240.265 118.076 239.798 119.627 238.864C118.127 238.5 116.861 237.929 115.827 237.151C114.793 236.32 113.991 235.386 113.423 234.348C113.113 235.594 112.957 236.658 112.957 237.54Z" fill="white"/>
<path d="M168.279 229.054C168.537 229.054 168.77 229.21 168.977 229.521C169.235 229.781 169.364 230.118 169.364 230.533C169.364 231 169.235 231.39 168.977 231.701C168.201 232.791 167.116 234.011 165.72 235.36C164.376 236.658 163.186 237.696 162.152 238.474C160.188 239.928 158.068 241.018 155.794 241.744C154.656 242.108 153.415 242.367 152.071 242.523C150.727 242.679 149.383 242.756 148.039 242.756C146.901 243.327 145.79 243.769 144.704 244.08C143.67 244.443 142.636 244.625 141.602 244.625C140.672 244.625 139.793 244.391 138.966 243.924C138.19 243.509 137.596 242.834 137.182 241.9C137.13 241.744 137.079 241.589 137.027 241.433C136.975 241.277 136.924 241.121 136.872 240.966C136.045 242.99 135.037 245.274 133.848 247.817C132.71 250.412 131.392 253.033 129.893 255.68C128.342 258.327 126.61 260.819 124.697 263.154C122.732 265.542 120.561 267.566 118.183 269.227C116.89 270.161 115.495 270.628 113.995 270.628C113.065 270.628 112.289 270.369 111.669 269.85C110.997 269.383 110.661 268.63 110.661 267.592C110.661 265.568 111.255 263.44 112.444 261.208C113.633 259.028 115.184 256.822 117.097 254.59C119.01 252.41 121.078 250.282 123.301 248.206C125.472 246.13 127.566 244.184 129.582 242.367C131.599 240.602 133.279 239.045 134.623 237.696C134.985 237.073 135.476 236.113 136.096 234.815C136.717 233.518 137.363 232.064 138.035 230.455C138.759 228.795 139.405 227.108 139.974 225.395C140.594 223.682 141.059 222.099 141.37 220.646C141.68 219.193 141.757 218.025 141.602 217.142C141.499 216.416 141.628 215.845 141.99 215.43C142.404 215.014 142.869 214.807 143.386 214.807C143.748 214.807 144.058 214.962 144.316 215.274C144.627 215.533 144.782 215.949 144.782 216.52C144.782 217.973 144.472 219.841 143.851 222.125C143.283 224.409 142.559 226.796 141.68 229.288C142.662 228.146 143.851 226.848 145.247 225.395C146.695 223.89 148.297 222.488 150.055 221.191C151.037 220.464 152.097 219.763 153.234 219.089C154.424 218.362 155.561 217.765 156.647 217.298C157.732 216.831 158.611 216.597 159.283 216.597C160.938 216.597 162.049 217.09 162.618 218.077C163.238 219.063 163.548 220.205 163.548 221.502C163.548 223.475 163.006 225.603 161.92 227.886C160.886 230.118 159.49 232.324 157.732 234.504C155.975 236.632 154.036 238.526 151.916 240.187C152.381 240.135 152.795 240.083 153.157 240.032C153.571 239.928 153.932 239.85 154.243 239.798C155.742 239.383 157.112 238.76 158.353 237.929C159.645 237.047 160.912 236.061 162.152 234.971C163.186 234.089 164.143 233.154 165.022 232.168C165.901 231.182 166.728 230.274 167.503 229.443C167.71 229.184 167.969 229.054 168.279 229.054ZM159.361 219.167C158.585 219.167 157.448 219.608 155.949 220.49C154.501 221.372 152.847 222.566 150.986 224.071C149.124 225.525 147.212 227.16 145.247 228.976C143.283 230.741 141.447 232.532 139.741 234.348C139.483 235.023 139.198 235.698 138.888 236.372C138.578 237.047 138.294 237.696 138.035 238.319C137.983 238.423 137.932 238.552 137.88 238.708C137.828 238.812 137.777 238.942 137.725 239.097C137.983 238.942 138.216 238.864 138.423 238.864C138.681 238.864 138.992 238.993 139.353 239.253C139.715 239.512 140 239.694 140.206 239.798C141.24 240.317 142.274 240.628 143.308 240.732C144.342 240.784 145.48 240.706 146.72 240.499C148.53 239.564 150.262 238.267 151.916 236.606C153.571 234.893 155.044 233.077 156.336 231.156C157.681 229.236 158.74 227.393 159.516 225.628C160.291 223.864 160.679 222.41 160.679 221.269C160.679 220.698 160.627 220.205 160.524 219.789C160.421 219.374 160.033 219.167 159.361 219.167ZM117.562 266.191C120.613 263.18 123.43 259.677 126.015 255.68C128.548 251.736 130.771 247.609 132.684 243.301C132.167 243.717 131.288 244.469 130.048 245.559C128.755 246.701 127.308 248.05 125.705 249.608C124.051 251.165 122.422 252.852 120.819 254.668C119.165 256.537 117.743 258.405 116.554 260.274C115.314 262.194 114.461 264.037 113.995 265.801C113.944 266.009 113.918 266.268 113.918 266.58C113.918 267.358 114.228 267.748 114.848 267.748C115.624 267.748 116.529 267.229 117.562 266.191Z" fill="white"/>
<path d="M171.642 242.834C170.039 242.834 168.669 242.341 167.532 241.355C166.446 240.369 165.903 238.656 165.903 236.217C165.903 234.556 166.317 232.609 167.144 230.378C168.023 228.146 169.186 225.992 170.634 223.916C172.081 221.788 173.684 220.049 175.442 218.699C177.199 217.298 178.983 216.597 180.792 216.597C181.982 216.597 182.86 217.039 183.429 217.921C184.049 218.751 184.36 219.763 184.36 220.957C184.36 222.722 183.791 224.435 182.654 226.096C181.516 227.756 180.069 229.106 178.311 230.144C176.605 231.182 174.899 231.701 173.193 231.701C171.797 231.701 170.737 231.26 170.013 230.378C169.6 231.416 169.264 232.428 169.005 233.414C168.747 234.4 168.617 235.334 168.617 236.217C168.617 237.722 168.928 238.786 169.548 239.409C170.22 239.98 171.047 240.265 172.03 240.265C173.219 240.265 174.537 239.954 175.984 239.331C177.484 238.708 178.88 237.981 180.172 237.151C181.465 236.269 182.421 235.542 183.041 234.971C184.075 234.089 185.058 233.128 185.988 232.09C186.97 231 187.823 229.988 188.547 229.054C188.806 228.743 189.09 228.587 189.4 228.587C189.71 228.587 189.969 228.743 190.176 229.054C190.434 229.314 190.563 229.651 190.563 230.066C190.563 230.429 190.434 230.793 190.176 231.156C189.349 232.194 188.315 233.388 187.074 234.737C185.885 236.035 184.541 237.255 183.041 238.397C182.214 239.071 181.154 239.746 179.862 240.421C178.569 241.096 177.199 241.666 175.752 242.134C174.356 242.601 172.986 242.834 171.642 242.834ZM173.038 229.21C174.072 229.21 175.183 228.872 176.372 228.198C177.613 227.523 178.699 226.641 179.629 225.551C180.611 224.409 181.258 223.189 181.568 221.891C181.62 221.788 181.645 221.658 181.645 221.502C181.645 221.346 181.645 221.217 181.645 221.113C181.645 220.179 181.309 219.712 180.637 219.712C179.552 219.712 178.414 220.127 177.225 220.957C176.036 221.736 174.899 222.8 173.813 224.149C172.779 225.447 171.849 226.874 171.021 228.431C171.228 228.587 171.435 228.743 171.642 228.898C171.849 229.002 172.055 229.08 172.262 229.132C172.366 229.184 172.495 229.21 172.65 229.21C172.805 229.21 172.934 229.21 173.038 229.21Z" fill="white"/>
<path d="M187.115 243.457C186.753 243.457 186.417 243.327 186.107 243.068C185.797 242.808 185.642 242.497 185.642 242.134C185.642 242.03 185.693 241.822 185.797 241.511C186.831 239.279 187.839 237.255 188.821 235.438C189.855 233.57 190.915 231.753 192.001 229.988C192.466 229.262 192.983 228.327 193.551 227.186C194.172 225.992 194.766 224.72 195.335 223.371C195.904 221.969 196.369 220.646 196.731 219.4C197.145 218.154 197.351 217.142 197.351 216.364C197.351 215.949 197.325 215.663 197.274 215.507C197.222 215.456 197.196 215.352 197.196 215.196C197.196 214.781 197.377 214.443 197.739 214.184C198.153 213.872 198.54 213.717 198.902 213.717C199.316 213.717 199.704 213.924 200.066 214.34C200.427 214.703 200.608 215.352 200.608 216.286C200.608 217.065 200.427 218.103 200.066 219.4C199.755 220.646 199.212 222.151 198.437 223.916C198.023 224.798 197.636 225.628 197.274 226.407C196.912 227.134 196.55 227.834 196.188 228.509C198.204 226.381 200.272 224.487 202.392 222.826C204.512 221.113 206.399 219.763 208.053 218.777C209.707 217.791 210.819 217.298 211.387 217.298C212.008 217.298 212.447 217.48 212.706 217.843C212.964 218.206 213.094 218.622 213.094 219.089C213.094 219.763 212.887 220.542 212.473 221.424C212.111 222.255 211.724 223.007 211.31 223.682C210.896 224.357 210.612 224.824 210.457 225.083C209.888 225.966 209.113 227.289 208.13 229.054C207.148 230.819 206.321 232.532 205.649 234.192C205.442 234.763 205.235 235.36 205.029 235.983C204.873 236.554 204.796 237.047 204.796 237.462C204.796 238.137 205.08 238.474 205.649 238.474C206.166 238.474 206.916 238.215 207.898 237.696C209.139 237.021 210.276 236.165 211.31 235.127C212.396 234.037 213.326 233.102 214.102 232.324C214.153 232.272 214.386 232.013 214.8 231.545C215.265 231.078 215.704 230.611 216.118 230.144C216.583 229.677 216.816 229.443 216.816 229.443C217.023 229.184 217.281 229.054 217.591 229.054C217.85 229.054 218.082 229.21 218.289 229.521C218.548 229.781 218.677 230.118 218.677 230.533C218.677 231 218.548 231.39 218.289 231.701C217.514 232.791 216.454 233.985 215.11 235.282C213.766 236.58 212.577 237.644 211.543 238.474C210.457 239.305 209.345 239.98 208.208 240.499C207.122 240.966 206.037 241.199 204.951 241.199C204.02 241.199 203.245 241.018 202.625 240.654C202.004 240.291 201.694 239.331 201.694 237.774C201.694 235.801 202.185 233.855 203.167 231.935C204.201 230.014 205.339 228.12 206.58 226.251C207.872 224.383 208.932 222.618 209.759 220.957C208.467 221.736 206.735 222.93 204.563 224.539C202.444 226.147 200.195 228.042 197.817 230.222C195.49 232.35 193.371 234.686 191.458 237.229C191.096 237.903 190.708 238.63 190.294 239.409C189.881 240.187 189.467 241.044 189.054 241.978C188.588 242.964 187.942 243.457 187.115 243.457Z" fill="white"/>
<path d="M216.673 242.289C216.312 242.289 215.976 242.16 215.665 241.9C215.355 241.692 215.226 241.355 215.278 240.888C215.484 238.293 216.208 235.256 217.449 231.779C218.741 228.301 220.318 224.772 222.179 221.191C221.559 221.139 220.939 221.061 220.318 220.957C219.956 220.853 219.672 220.672 219.465 220.412C219.258 220.153 219.155 219.893 219.155 219.634C219.155 219.374 219.233 219.141 219.388 218.933C219.594 218.673 219.879 218.544 220.241 218.544C220.551 218.544 220.887 218.596 221.249 218.699C221.662 218.751 222.102 218.777 222.567 218.777C222.877 218.777 223.162 218.777 223.42 218.777C225.23 215.3 227.142 212.03 229.159 208.968C231.175 205.853 233.036 203.258 234.742 201.182C235.776 199.937 236.862 198.743 237.999 197.601C239.137 196.459 240.3 195.525 241.489 194.798C242.73 194.02 243.919 193.63 245.056 193.63C246.555 193.63 247.589 194.046 248.158 194.876C248.778 195.655 249.088 196.641 249.088 197.835C249.088 199.547 248.623 201.286 247.693 203.051C246.917 204.504 245.754 206.191 244.203 208.111C242.652 209.98 240.843 211.848 238.775 213.717C236.758 215.533 234.561 217.116 232.183 218.466C229.857 219.815 227.478 220.672 225.049 221.035C223.963 223.111 222.981 225.161 222.102 227.186C221.275 229.21 220.551 231.13 219.93 232.947C220.344 232.428 220.758 231.909 221.171 231.39C222.515 229.729 223.86 228.172 225.204 226.718C226.548 225.213 228.254 223.708 230.322 222.203C232.39 220.698 234.225 219.504 235.828 218.622C237.482 217.687 238.568 217.246 239.085 217.298C240.17 217.454 240.713 218.051 240.713 219.089C240.713 219.763 240.507 220.542 240.093 221.424C239.731 222.255 239.343 223.007 238.93 223.682C238.516 224.357 238.232 224.824 238.077 225.083C237.508 225.966 236.733 227.289 235.75 229.054C234.768 230.819 233.941 232.532 233.269 234.192C233.062 234.763 232.855 235.36 232.648 235.983C232.493 236.554 232.416 237.047 232.416 237.462C232.416 238.137 232.7 238.474 233.269 238.474C233.786 238.474 234.535 238.215 235.518 237.696C236.758 237.021 237.896 236.165 238.93 235.127C240.015 234.037 240.946 233.102 241.721 232.324C241.773 232.272 242.006 232.013 242.419 231.545C242.885 231.078 243.324 230.611 243.738 230.144C244.203 229.677 244.436 229.443 244.436 229.443C244.642 229.184 244.901 229.054 245.211 229.054C245.47 229.054 245.702 229.21 245.909 229.521C246.168 229.781 246.297 230.118 246.297 230.533C246.297 231 246.168 231.39 245.909 231.701C245.134 232.791 244.074 233.985 242.73 235.282C241.385 236.58 240.196 237.644 239.162 238.474C238.077 239.305 236.965 239.954 235.828 240.421C234.69 240.888 233.656 241.121 232.726 241.121C231.744 241.121 230.916 240.836 230.244 240.265C229.624 239.694 229.314 238.786 229.314 237.54C229.314 236.398 229.572 235.127 230.089 233.725C230.813 231.597 231.873 229.495 233.269 227.419C234.716 225.343 235.905 223.345 236.836 221.424C233.062 223.656 229.572 226.381 226.367 229.599C223.162 232.817 220.422 236.217 218.147 239.798C218.095 240.213 218.043 240.628 217.992 241.044C217.992 241.459 217.837 241.77 217.527 241.978C217.268 242.185 216.984 242.289 216.673 242.289ZM244.978 196.355C243.996 196.355 242.833 196.9 241.489 197.99C240.145 199.08 238.749 200.507 237.301 202.272C235.905 203.985 234.509 205.853 233.114 207.878C231.718 209.85 230.451 211.77 229.314 213.639C228.176 215.456 227.272 216.961 226.6 218.154C228.668 217.428 230.891 216.286 233.269 214.729C235.647 213.172 237.896 211.303 240.015 209.123C242.135 206.943 243.893 204.53 245.289 201.883C245.702 201.052 245.987 200.352 246.142 199.781C246.348 199.158 246.452 198.639 246.452 198.224C246.452 197.497 246.271 197.004 245.909 196.745C245.599 196.485 245.289 196.355 244.978 196.355Z" fill="white"/>
<path d="M245.866 242.056C244.418 242.056 243.333 241.64 242.609 240.81C241.937 239.928 241.601 238.838 241.601 237.54C241.601 236.087 242.014 234.4 242.842 232.48C243.721 230.507 244.858 228.483 246.254 226.407C247.65 224.331 249.175 222.41 250.829 220.646C252.535 218.829 254.241 217.376 255.947 216.286C257.653 215.144 259.23 214.573 260.678 214.573C261.66 214.573 262.616 214.729 263.547 215.04C264.477 215.3 265.227 215.845 265.796 216.675C266.416 217.506 266.726 218.725 266.726 220.334C266.726 220.905 266.571 221.321 266.261 221.58C265.951 221.84 265.667 221.969 265.408 221.969C264.839 221.969 264.555 221.762 264.555 221.346C264.297 219.686 263.754 218.596 262.927 218.077C262.151 217.558 261.401 217.298 260.678 217.298C259.644 217.298 258.429 217.817 257.033 218.855C255.637 219.893 254.215 221.217 252.768 222.826C251.32 224.435 249.95 226.173 248.658 228.042C247.417 229.859 246.409 231.623 245.633 233.336C244.858 234.997 244.47 236.372 244.47 237.462C244.47 237.981 244.548 238.448 244.703 238.864C244.91 239.279 245.22 239.487 245.633 239.487C246.409 239.487 247.417 239.071 248.658 238.241C249.898 237.41 251.217 236.346 252.613 235.049C254.06 233.699 255.482 232.298 256.878 230.845C258.274 229.391 259.54 228.016 260.678 226.718C261.815 225.421 262.694 224.383 263.314 223.604C263.624 223.137 264.012 222.904 264.477 222.904C264.839 222.904 265.175 223.033 265.486 223.293C265.796 223.552 265.951 223.89 265.951 224.305C265.951 224.513 265.873 224.746 265.718 225.006C265.356 225.577 264.917 226.381 264.4 227.419C263.935 228.457 263.444 229.573 262.927 230.767C262.461 231.961 262.048 233.077 261.686 234.115C261.376 235.101 261.22 235.853 261.22 236.372C261.22 236.891 261.401 237.151 261.763 237.151C262.022 237.151 262.332 237.021 262.694 236.762C263.107 236.502 263.469 236.269 263.78 236.061C265.02 235.023 266.209 233.933 267.347 232.791C268.484 231.597 269.518 230.481 270.449 229.443C270.655 229.184 270.914 229.054 271.224 229.054C271.483 229.054 271.715 229.21 271.922 229.521C272.181 229.781 272.31 230.118 272.31 230.533C272.31 231 272.181 231.39 271.922 231.701C271.095 232.791 270.009 234.011 268.665 235.36C267.321 236.658 266.132 237.696 265.098 238.474C264.426 238.942 263.624 239.409 262.694 239.876C261.815 240.291 260.962 240.499 260.135 240.499C259.514 240.499 258.997 240.317 258.584 239.954C258.17 239.538 257.963 238.838 257.963 237.852C257.963 237.073 258.093 236.191 258.351 235.205C258.61 234.218 258.92 233.206 259.282 232.168C257.834 233.725 256.283 235.256 254.629 236.762C252.975 238.267 251.372 239.538 249.821 240.576C248.322 241.563 247.003 242.056 245.866 242.056Z" fill="white"/>
<path d="M272.929 241.121C271.481 241.121 270.396 240.706 269.672 239.876C269 238.993 268.664 237.903 268.664 236.606C268.664 235.153 269.077 233.466 269.905 231.545C270.783 229.573 271.921 227.549 273.317 225.473C274.713 223.397 276.238 221.476 277.892 219.712C279.598 217.895 281.304 216.442 283.01 215.352C284.716 214.21 286.293 213.639 287.741 213.639C291.773 213.639 293.789 215.481 293.789 219.167C293.789 219.841 293.634 220.334 293.324 220.646C293.014 220.905 292.704 221.035 292.393 221.035C291.98 221.035 291.721 220.827 291.618 220.412C291.411 218.751 290.894 217.661 290.067 217.142C289.24 216.623 288.464 216.364 287.741 216.364C286.707 216.364 285.492 216.883 284.096 217.921C282.7 218.959 281.278 220.282 279.831 221.891C278.383 223.5 277.013 225.239 275.721 227.108C274.48 228.924 273.472 230.689 272.696 232.402C271.921 234.063 271.533 235.438 271.533 236.528C271.533 237.047 271.611 237.514 271.766 237.929C271.973 238.345 272.283 238.552 272.696 238.552C273.472 238.552 274.48 238.137 275.721 237.307C276.961 236.476 278.306 235.412 279.753 234.115C281.201 232.817 282.622 231.442 284.018 229.988C285.466 228.535 286.732 227.16 287.818 225.862C288.956 224.564 289.809 223.5 290.377 222.67C290.636 222.255 290.972 222.047 291.385 222.047C292.213 222.047 292.626 222.54 292.626 223.526C292.626 223.63 292.6 223.76 292.549 223.916C292.549 224.019 292.523 224.149 292.471 224.305C291.954 226.277 291.179 228.613 290.145 231.312C289.162 234.011 288.051 236.814 286.81 239.72C287.275 239.772 287.766 239.876 288.283 240.032C288.956 240.187 289.292 240.602 289.292 241.277C289.292 241.64 289.111 242.004 288.749 242.367C288.439 242.73 288.025 242.834 287.508 242.679C287.146 242.575 286.784 242.497 286.422 242.445C286.112 242.393 285.854 242.367 285.647 242.367C284.096 245.741 282.493 248.985 280.839 252.099C279.185 255.265 277.634 257.938 276.186 260.118C274.894 261.986 273.446 263.777 271.843 265.49C270.241 267.255 268.535 268.682 266.725 269.772C264.916 270.862 263.08 271.407 261.219 271.407C259.151 271.407 257.549 270.888 256.411 269.85C255.274 268.812 254.705 267.436 254.705 265.723C254.705 264.166 255.119 262.428 255.946 260.507C256.721 258.587 257.807 256.666 259.203 254.746C260.909 252.41 263.029 250.127 265.562 247.895C268.147 245.663 270.99 243.794 274.092 242.289C277.194 240.836 280.425 239.98 283.786 239.72C284.613 237.8 285.388 235.983 286.112 234.27C286.836 232.506 287.456 230.897 287.973 229.443C284.768 233.128 281.821 236.009 279.133 238.085C276.496 240.109 274.428 241.121 272.929 241.121ZM257.575 265.412C257.575 266.346 257.859 267.125 258.428 267.748C258.996 268.37 260.004 268.682 261.452 268.682C263.21 268.682 265.019 267.903 266.88 266.346C268.741 264.841 270.577 262.817 272.386 260.274C274.247 257.73 276.031 254.928 277.737 251.865C279.443 248.803 281.02 245.689 282.467 242.523C279.624 242.938 276.884 243.82 274.247 245.17C271.611 246.571 269.181 248.232 266.958 250.153C264.786 252.125 262.951 254.175 261.452 256.303C261.038 256.874 260.521 257.678 259.901 258.717C259.281 259.806 258.738 260.922 258.272 262.064C257.807 263.258 257.575 264.374 257.575 265.412Z" fill="white"/>
<path d="M301.898 242.834C300.295 242.834 298.925 242.341 297.788 241.355C296.702 240.369 296.159 238.656 296.159 236.217C296.159 234.556 296.573 232.609 297.4 230.378C298.279 228.146 299.442 225.992 300.89 223.916C302.337 221.788 303.94 220.049 305.698 218.699C307.456 217.298 309.239 216.597 311.049 216.597C312.238 216.597 313.117 217.039 313.685 217.921C314.306 218.751 314.616 219.763 314.616 220.957C314.616 222.722 314.047 224.435 312.91 226.096C311.772 227.756 310.325 229.106 308.567 230.144C306.861 231.182 305.155 231.701 303.449 231.701C302.053 231.701 300.993 231.26 300.269 230.378C299.856 231.416 299.52 232.428 299.261 233.414C299.003 234.4 298.874 235.334 298.874 236.217C298.874 237.722 299.184 238.786 299.804 239.409C300.476 239.98 301.303 240.265 302.286 240.265C303.475 240.265 304.793 239.954 306.241 239.331C307.74 238.708 309.136 237.981 310.428 237.151C311.721 236.269 312.677 235.542 313.298 234.971C314.331 234.089 315.314 233.128 316.244 232.09C317.227 231 318.08 229.988 318.803 229.054C319.062 228.743 319.346 228.587 319.656 228.587C319.967 228.587 320.225 228.743 320.432 229.054C320.69 229.314 320.82 229.651 320.82 230.066C320.82 230.429 320.69 230.793 320.432 231.156C319.605 232.194 318.571 233.388 317.33 234.737C316.141 236.035 314.797 237.255 313.298 238.397C312.47 239.071 311.41 239.746 310.118 240.421C308.826 241.096 307.456 241.666 306.008 242.134C304.612 242.601 303.242 242.834 301.898 242.834ZM303.294 229.21C304.328 229.21 305.439 228.872 306.628 228.198C307.869 227.523 308.955 226.641 309.885 225.551C310.868 224.409 311.514 223.189 311.824 221.891C311.876 221.788 311.902 221.658 311.902 221.502C311.902 221.346 311.902 221.217 311.902 221.113C311.902 220.179 311.566 219.712 310.894 219.712C309.808 219.712 308.67 220.127 307.481 220.957C306.292 221.736 305.155 222.8 304.069 224.149C303.035 225.447 302.105 226.874 301.278 228.431C301.484 228.587 301.691 228.743 301.898 228.898C302.105 229.002 302.312 229.08 302.518 229.132C302.622 229.184 302.751 229.21 302.906 229.21C303.061 229.21 303.19 229.21 303.294 229.21Z" fill="white"/>
<path d="M317.371 243.457C317.009 243.457 316.673 243.327 316.363 243.068C316.053 242.808 315.898 242.497 315.898 242.134C315.898 242.03 315.949 241.822 316.053 241.511C317.087 239.279 318.095 237.255 319.077 235.438C320.111 233.57 321.171 231.753 322.257 229.988C322.722 229.262 323.239 228.327 323.808 227.186C324.428 225.992 325.023 224.72 325.591 223.371C326.16 221.969 326.625 220.646 326.987 219.4C327.401 218.154 327.607 217.142 327.607 216.364C327.607 215.949 327.582 215.663 327.53 215.507C327.478 215.456 327.452 215.352 327.452 215.196C327.452 214.781 327.633 214.443 327.995 214.184C328.409 213.872 328.797 213.717 329.158 213.717C329.572 213.717 329.96 213.924 330.322 214.34C330.684 214.703 330.864 215.352 330.864 216.286C330.864 217.065 330.684 218.103 330.322 219.4C330.011 220.646 329.469 222.151 328.693 223.916C328.28 224.798 327.892 225.628 327.53 226.407C327.168 227.134 326.806 227.834 326.444 228.509C328.461 226.381 330.528 224.487 332.648 222.826C334.768 221.113 336.655 219.763 338.309 218.777C339.963 217.791 341.075 217.298 341.644 217.298C342.264 217.298 342.703 217.48 342.962 217.843C343.22 218.206 343.35 218.622 343.35 219.089C343.35 219.763 343.143 220.542 342.729 221.424C342.367 222.255 341.98 223.007 341.566 223.682C341.153 224.357 340.868 224.824 340.713 225.083C340.144 225.966 339.369 227.289 338.387 229.054C337.404 230.819 336.577 232.532 335.905 234.192C335.698 234.763 335.492 235.36 335.285 235.983C335.13 236.554 335.052 237.047 335.052 237.462C335.052 238.137 335.336 238.474 335.905 238.474C336.422 238.474 337.172 238.215 338.154 237.696C339.395 237.021 340.532 236.165 341.566 235.127C342.652 234.037 343.582 233.102 344.358 232.324C344.41 232.272 344.642 232.013 345.056 231.545C345.521 231.078 345.96 230.611 346.374 230.144C346.839 229.677 347.072 229.443 347.072 229.443C347.279 229.184 347.537 229.054 347.847 229.054C348.106 229.054 348.339 229.21 348.545 229.521C348.804 229.781 348.933 230.118 348.933 230.533C348.933 231 348.804 231.39 348.545 231.701C347.77 232.791 346.71 233.985 345.366 235.282C344.022 236.58 342.833 237.644 341.799 238.474C340.713 239.305 339.602 239.98 338.464 240.499C337.379 240.966 336.293 241.199 335.207 241.199C334.277 241.199 333.501 241.018 332.881 240.654C332.26 240.291 331.95 239.331 331.95 237.774C331.95 235.801 332.441 233.855 333.424 231.935C334.458 230.014 335.595 228.12 336.836 226.251C338.128 224.383 339.188 222.618 340.015 220.957C338.723 221.736 336.991 222.93 334.819 224.539C332.7 226.147 330.451 228.042 328.073 230.222C325.746 232.35 323.627 234.686 321.714 237.229C321.352 237.903 320.964 238.63 320.551 239.409C320.137 240.187 319.723 241.044 319.31 241.978C318.845 242.964 318.198 243.457 317.371 243.457Z" fill="white"/>
</g>
<g filter="url(#filter2_df_7_235)">
<path d="M73.1787 250.69C68.4741 250.69 64.5967 250.041 61.5465 248.744C58.4963 247.498 56.2474 245.759 54.7998 243.527C53.3523 241.296 52.6285 238.778 52.6285 235.976C52.6285 232.758 53.5074 229.28 55.2651 225.543C57.0229 221.754 59.5561 218.043 62.8648 214.41C62.8648 214.41 62.8907 214.384 62.9424 214.332C61.3397 213.761 59.8405 213.112 58.4446 212.386C57.0487 211.659 55.808 210.829 54.7223 209.894C53.4815 208.856 52.551 207.714 51.9306 206.469C51.3102 205.223 51 204.029 51 202.887C51 201.227 51.6204 199.825 52.8611 198.683C54.1019 197.49 55.9889 196.893 58.5221 196.893C59.3493 196.893 60.2282 196.971 61.1588 197.126C62.0893 197.23 63.0716 197.438 64.1056 197.749C64.8294 197.957 65.1913 198.398 65.1913 199.073C65.1913 199.436 64.9845 199.799 64.5709 200.163C64.209 200.474 63.7437 200.526 63.175 200.318C61.469 199.851 59.9956 199.618 58.7548 199.618C57.2038 199.618 56.0148 199.929 55.1876 200.552C54.4121 201.175 54.0244 201.953 54.0244 202.887C54.0244 204.289 54.9032 205.898 56.661 207.714C58.4704 209.479 61.2622 210.958 65.0362 212.152C68.1381 209.09 71.6794 206.339 75.6602 203.9C79.6927 201.408 84.0354 199.436 88.6883 197.983C93.3411 196.529 98.2008 195.803 103.267 195.803C108.179 195.803 111.849 196.633 114.279 198.294C116.709 199.955 117.924 201.875 117.924 204.055C117.924 206.131 116.838 208.233 114.667 210.362C112.547 212.438 109.368 214.021 105.128 215.111C102.44 215.785 99.2865 216.356 95.6676 216.823C92.1004 217.239 88.4039 217.446 84.5782 217.446C81.3729 217.446 78.1676 217.291 74.9623 216.979C71.8087 216.616 68.8102 216.045 65.9667 215.266C62.8131 218.64 60.3057 222.143 58.4446 225.777C56.6351 229.358 55.7304 232.706 55.7304 235.82C55.7304 239.297 57.0746 242.204 59.7629 244.54C62.4512 246.875 66.8456 248.043 72.946 248.043C73.7215 248.043 74.5487 247.991 75.4276 247.887C76.3065 247.835 77.2112 247.783 78.1417 247.732C81.3471 247.368 84.785 246.46 88.4556 245.007C92.1779 243.605 95.8485 241.711 99.4674 239.323C103.138 236.884 106.498 234.081 109.549 230.915C109.911 230.552 112.748 227.801 113.11 227.801C113.472 227.801 112.438 230.266 112.644 230.526C112.903 230.785 111.875 231.33 111.875 231.694C111.875 232.057 111.72 232.394 111.41 232.706C108.463 236.027 105.051 238.96 101.173 241.503C97.3478 244.098 93.4445 246.149 89.4637 247.654C85.4829 249.211 81.7606 250.145 78.2968 250.456C76.5391 250.612 74.833 250.69 73.1787 250.69ZM68.2156 213.086C70.6972 213.605 73.2562 213.995 75.8929 214.254C78.5812 214.514 81.2695 214.643 83.9578 214.643C88.0937 214.643 91.9711 214.41 95.59 213.943C99.2606 213.476 102.13 212.957 104.198 212.386C107.868 211.451 110.557 210.258 112.263 208.804C114.021 207.351 114.899 205.924 114.899 204.522C114.899 202.913 113.891 201.538 111.875 200.396C109.859 199.202 106.99 198.606 103.267 198.606C98.6661 198.606 94.2458 199.254 90.0066 200.552C85.7673 201.798 81.7865 203.51 78.0642 205.69C74.3936 207.87 71.1107 210.336 68.2156 213.086Z" fill="white" fill-opacity="0.8" shape-rendering="crispEdges"/>
<path d="M114.738 242.36C112.981 242.36 111.74 241.867 111.016 240.88C110.292 239.842 109.93 238.571 109.93 237.066C109.93 235.82 110.111 234.47 110.473 233.017C110.887 231.512 111.404 230.033 112.024 228.579C112.076 226.555 112.619 224.557 113.653 222.585C114.738 220.612 116.186 218.977 117.995 217.68C119.856 216.382 122.028 215.733 124.509 215.733C126.939 215.733 128.619 216.434 129.55 217.836C130.532 219.237 131.023 220.898 131.023 222.818C131.023 223.96 130.894 225.128 130.636 226.322C130.377 227.463 130.041 228.553 129.627 229.592C129.214 230.63 128.697 231.694 128.077 232.784C127.456 233.822 126.758 234.86 125.983 235.898C127.534 235.638 128.878 235.145 130.015 234.418C131.204 233.64 132.393 232.576 133.582 231.226C134.771 229.877 136.167 228.164 137.77 226.088C138.08 225.725 138.416 225.543 138.778 225.543C139.192 225.543 139.528 225.673 139.786 225.932C140.096 226.192 140.252 226.529 140.252 226.944C140.252 227.256 140.148 227.541 139.941 227.801C138.442 229.877 136.917 231.745 135.366 233.406C133.867 235.067 132.161 236.365 130.248 237.299C128.335 238.233 126.034 238.7 123.346 238.7C122.105 239.79 120.761 240.673 119.314 241.347C117.866 242.022 116.341 242.36 114.738 242.36ZM119.236 222.195C118.616 222.662 117.866 223.597 116.987 224.998C116.108 226.399 115.307 227.931 114.583 229.592C114.687 231.2 115.333 232.654 116.522 233.951C117.763 235.197 119.65 235.898 122.183 236.053C124.044 234.237 125.543 232.109 126.681 229.669C127.818 227.178 128.387 224.946 128.387 222.974C128.387 221.624 128.076 220.534 127.456 219.704C126.836 218.874 125.853 218.458 124.509 218.458C123.579 218.458 122.674 218.614 121.795 218.925C120.916 219.237 120.115 219.652 119.391 220.171C119.65 220.431 119.779 220.742 119.779 221.105C119.779 221.521 119.598 221.884 119.236 222.195ZM112.644 236.91C112.644 237.74 112.8 238.415 113.11 238.934C113.472 239.401 114.014 239.635 114.738 239.635C116.238 239.635 117.763 239.168 119.314 238.233C117.814 237.87 116.548 237.299 115.514 236.521C114.48 235.69 113.678 234.756 113.11 233.718C112.8 234.963 112.644 236.027 112.644 236.91Z" fill="white" fill-opacity="0.8" shape-rendering="crispEdges"/>
<path d="M167.966 228.424C168.224 228.424 168.457 228.579 168.664 228.891C168.922 229.15 169.051 229.488 169.051 229.903C169.051 230.37 168.922 230.759 168.664 231.071C167.888 232.161 166.803 233.38 165.407 234.73C164.063 236.027 162.873 237.066 161.839 237.844C159.875 239.297 157.755 240.387 155.481 241.114C154.343 241.477 153.102 241.737 151.758 241.892C150.414 242.048 149.07 242.126 147.726 242.126C146.588 242.697 145.477 243.138 144.391 243.45C143.357 243.813 142.323 243.995 141.289 243.995C140.359 243.995 139.48 243.761 138.653 243.294C137.877 242.879 137.283 242.204 136.869 241.27C136.817 241.114 136.766 240.958 136.714 240.803C136.662 240.647 136.611 240.491 136.559 240.335C135.732 242.36 134.724 244.643 133.535 247.187C132.397 249.782 131.079 252.403 129.58 255.05C128.029 257.697 126.297 260.188 124.384 262.524C122.419 264.911 120.248 266.936 117.87 268.596C116.577 269.531 115.182 269.998 113.682 269.998C112.752 269.998 111.976 269.738 111.356 269.219C110.684 268.752 110.348 268 110.348 266.962C110.348 264.937 110.942 262.809 112.131 260.577C113.32 258.398 114.871 256.192 116.784 253.96C118.697 251.78 120.765 249.652 122.988 247.576C125.159 245.5 127.253 243.553 129.269 241.737C131.286 239.972 132.966 238.415 134.31 237.066C134.672 236.443 135.163 235.482 135.783 234.185C136.404 232.887 137.05 231.434 137.722 229.825C138.446 228.164 139.092 226.477 139.661 224.765C140.281 223.052 140.746 221.469 141.057 220.015C141.367 218.562 141.444 217.394 141.289 216.512C141.186 215.785 141.315 215.214 141.677 214.799C142.091 214.384 142.556 214.176 143.073 214.176C143.435 214.176 143.745 214.332 144.004 214.643C144.314 214.903 144.469 215.318 144.469 215.889C144.469 217.342 144.159 219.211 143.538 221.495C142.97 223.778 142.246 226.166 141.367 228.657C142.349 227.515 143.538 226.218 144.934 224.765C146.382 223.259 147.984 221.858 149.742 220.56C150.724 219.834 151.784 219.133 152.922 218.458C154.111 217.732 155.248 217.135 156.334 216.668C157.419 216.201 158.298 215.967 158.97 215.967C160.625 215.967 161.736 216.46 162.305 217.446C162.925 218.432 163.235 219.574 163.235 220.872C163.235 222.844 162.693 224.972 161.607 227.256C160.573 229.488 159.177 231.694 157.419 233.873C155.662 236.001 153.723 237.896 151.603 239.557C152.068 239.505 152.482 239.453 152.844 239.401C153.258 239.297 153.619 239.219 153.93 239.168C155.429 238.752 156.799 238.13 158.04 237.299C159.332 236.417 160.599 235.431 161.839 234.341C162.873 233.458 163.83 232.524 164.709 231.538C165.588 230.552 166.415 229.643 167.19 228.813C167.397 228.553 167.656 228.424 167.966 228.424ZM159.048 218.536C158.272 218.536 157.135 218.977 155.636 219.86C154.188 220.742 152.534 221.936 150.673 223.441C148.811 224.894 146.899 226.529 144.934 228.346C142.97 230.111 141.134 231.901 139.428 233.718C139.17 234.393 138.885 235.067 138.575 235.742C138.265 236.417 137.981 237.066 137.722 237.688C137.67 237.792 137.619 237.922 137.567 238.078C137.515 238.181 137.464 238.311 137.412 238.467C137.67 238.311 137.903 238.233 138.11 238.233C138.368 238.233 138.679 238.363 139.04 238.623C139.402 238.882 139.687 239.064 139.893 239.168C140.927 239.687 141.961 239.998 142.995 240.102C144.029 240.154 145.167 240.076 146.407 239.868C148.217 238.934 149.949 237.636 151.603 235.976C153.258 234.263 154.731 232.446 156.023 230.526C157.368 228.605 158.427 226.763 159.203 224.998C159.978 223.233 160.366 221.78 160.366 220.638C160.366 220.067 160.314 219.574 160.211 219.159C160.108 218.744 159.72 218.536 159.048 218.536ZM117.249 265.56C120.3 262.55 123.117 259.046 125.702 255.05C128.235 251.105 130.458 246.979 132.371 242.671C131.854 243.086 130.975 243.839 129.735 244.929C128.442 246.071 126.995 247.42 125.392 248.977C123.738 250.534 122.109 252.221 120.506 254.038C118.852 255.906 117.43 257.775 116.241 259.643C115.001 261.564 114.148 263.406 113.682 265.171C113.631 265.379 113.605 265.638 113.605 265.949C113.605 266.728 113.915 267.117 114.535 267.117C115.311 267.117 116.216 266.598 117.249 265.56Z" fill="white" fill-opacity="0.8" shape-rendering="crispEdges"/>
<path d="M171.329 242.204C169.726 242.204 168.356 241.711 167.219 240.725C166.133 239.738 165.59 238.026 165.59 235.586C165.59 233.925 166.004 231.979 166.831 229.747C167.71 227.515 168.873 225.361 170.321 223.285C171.768 221.157 173.371 219.419 175.129 218.069C176.886 216.668 178.67 215.967 180.479 215.967C181.669 215.967 182.547 216.408 183.116 217.291C183.736 218.121 184.047 219.133 184.047 220.327C184.047 222.092 183.478 223.804 182.341 225.465C181.203 227.126 179.756 228.476 177.998 229.514C176.292 230.552 174.586 231.071 172.88 231.071C171.484 231.071 170.424 230.63 169.7 229.747C169.287 230.785 168.951 231.797 168.692 232.784C168.434 233.77 168.304 234.704 168.304 235.586C168.304 237.091 168.615 238.155 169.235 238.778C169.907 239.349 170.734 239.635 171.717 239.635C172.906 239.635 174.224 239.323 175.671 238.7C177.171 238.078 178.567 237.351 179.859 236.521C181.152 235.638 182.108 234.912 182.728 234.341C183.762 233.458 184.745 232.498 185.675 231.46C186.657 230.37 187.51 229.358 188.234 228.424C188.493 228.112 188.777 227.957 189.087 227.957C189.397 227.957 189.656 228.112 189.863 228.424C190.121 228.683 190.25 229.021 190.25 229.436C190.25 229.799 190.121 230.162 189.863 230.526C189.036 231.564 188.002 232.758 186.761 234.107C185.572 235.405 184.228 236.624 182.728 237.766C181.901 238.441 180.841 239.116 179.549 239.79C178.256 240.465 176.886 241.036 175.439 241.503C174.043 241.97 172.673 242.204 171.329 242.204ZM172.725 228.579C173.759 228.579 174.87 228.242 176.059 227.567C177.3 226.893 178.386 226.01 179.316 224.92C180.299 223.778 180.945 222.559 181.255 221.261C181.307 221.157 181.332 221.028 181.332 220.872C181.332 220.716 181.332 220.586 181.332 220.483C181.332 219.548 180.996 219.081 180.324 219.081C179.239 219.081 178.101 219.496 176.912 220.327C175.723 221.105 174.586 222.169 173.5 223.519C172.466 224.816 171.536 226.244 170.708 227.801C170.915 227.957 171.122 228.112 171.329 228.268C171.536 228.372 171.742 228.45 171.949 228.502C172.053 228.553 172.182 228.579 172.337 228.579C172.492 228.579 172.621 228.579 172.725 228.579Z" fill="white" fill-opacity="0.8" shape-rendering="crispEdges"/>
<path d="M186.802 242.827C186.44 242.827 186.104 242.697 185.794 242.437C185.484 242.178 185.329 241.867 185.329 241.503C185.329 241.399 185.38 241.192 185.484 240.88C186.518 238.649 187.526 236.624 188.508 234.808C189.542 232.939 190.602 231.123 191.688 229.358C192.153 228.631 192.67 227.697 193.238 226.555C193.859 225.361 194.453 224.09 195.022 222.74C195.591 221.339 196.056 220.015 196.418 218.77C196.832 217.524 197.038 216.512 197.038 215.733C197.038 215.318 197.013 215.033 196.961 214.877C196.909 214.825 196.883 214.721 196.883 214.566C196.883 214.15 197.064 213.813 197.426 213.554C197.84 213.242 198.227 213.086 198.589 213.086C199.003 213.086 199.391 213.294 199.753 213.709C200.114 214.073 200.295 214.721 200.295 215.656C200.295 216.434 200.114 217.472 199.753 218.77C199.442 220.015 198.9 221.521 198.124 223.285C197.71 224.168 197.323 224.998 196.961 225.777C196.599 226.503 196.237 227.204 195.875 227.879C197.891 225.751 199.959 223.856 202.079 222.195C204.199 220.483 206.086 219.133 207.74 218.147C209.394 217.161 210.506 216.668 211.075 216.668C211.695 216.668 212.134 216.849 212.393 217.213C212.651 217.576 212.781 217.991 212.781 218.458C212.781 219.133 212.574 219.912 212.16 220.794C211.798 221.624 211.411 222.377 210.997 223.052C210.583 223.726 210.299 224.194 210.144 224.453C209.575 225.335 208.8 226.659 207.818 228.424C206.835 230.188 206.008 231.901 205.336 233.562C205.129 234.133 204.922 234.73 204.716 235.353C204.56 235.924 204.483 236.417 204.483 236.832C204.483 237.507 204.767 237.844 205.336 237.844C205.853 237.844 206.603 237.585 207.585 237.066C208.826 236.391 209.963 235.534 210.997 234.496C212.083 233.406 213.013 232.472 213.789 231.694C213.84 231.642 214.073 231.382 214.487 230.915C214.952 230.448 215.391 229.981 215.805 229.514C216.27 229.047 216.503 228.813 216.503 228.813C216.71 228.553 216.968 228.424 217.278 228.424C217.537 228.424 217.769 228.579 217.976 228.891C218.235 229.15 218.364 229.488 218.364 229.903C218.364 230.37 218.235 230.759 217.976 231.071C217.201 232.161 216.141 233.354 214.797 234.652C213.453 235.95 212.264 237.014 211.23 237.844C210.144 238.674 209.032 239.349 207.895 239.868C206.809 240.335 205.724 240.569 204.638 240.569C203.707 240.569 202.932 240.387 202.312 240.024C201.691 239.661 201.381 238.7 201.381 237.143C201.381 235.171 201.872 233.225 202.854 231.304C203.888 229.384 205.026 227.489 206.267 225.621C207.559 223.752 208.619 221.988 209.446 220.327C208.154 221.105 206.422 222.299 204.25 223.908C202.131 225.517 199.882 227.412 197.504 229.592C195.177 231.72 193.058 234.055 191.145 236.598C190.783 237.273 190.395 238 189.981 238.778C189.568 239.557 189.154 240.413 188.741 241.347C188.275 242.334 187.629 242.827 186.802 242.827Z" fill="white" fill-opacity="0.8" shape-rendering="crispEdges"/>
<path d="M216.36 241.659C215.999 241.659 215.663 241.529 215.352 241.27C215.042 241.062 214.913 240.725 214.965 240.258C215.171 237.662 215.895 234.626 217.136 231.149C218.428 227.671 220.005 224.142 221.866 220.56C221.246 220.509 220.626 220.431 220.005 220.327C219.643 220.223 219.359 220.041 219.152 219.782C218.945 219.522 218.842 219.263 218.842 219.003C218.842 218.744 218.92 218.51 219.075 218.303C219.281 218.043 219.566 217.913 219.928 217.913C220.238 217.913 220.574 217.965 220.936 218.069C221.349 218.121 221.789 218.147 222.254 218.147C222.564 218.147 222.849 218.147 223.107 218.147C224.917 214.669 226.829 211.4 228.846 208.337C230.862 205.223 232.723 202.628 234.429 200.552C235.463 199.306 236.549 198.112 237.686 196.971C238.824 195.829 239.987 194.894 241.176 194.168C242.417 193.389 243.606 193 244.743 193C246.242 193 247.276 193.415 247.845 194.246C248.465 195.024 248.775 196.01 248.775 197.204C248.775 198.917 248.31 200.656 247.38 202.42C246.604 203.874 245.441 205.56 243.89 207.481C242.339 209.349 240.53 211.218 238.462 213.086C236.445 214.903 234.248 216.486 231.87 217.836C229.544 219.185 227.165 220.041 224.736 220.405C223.65 222.481 222.668 224.531 221.789 226.555C220.962 228.579 220.238 230.5 219.617 232.316C220.031 231.797 220.445 231.278 220.858 230.759C222.202 229.098 223.547 227.541 224.891 226.088C226.235 224.583 227.941 223.078 230.009 221.573C232.077 220.067 233.912 218.874 235.515 217.991C237.169 217.057 238.255 216.616 238.772 216.668C239.857 216.823 240.4 217.42 240.4 218.458C240.4 219.133 240.194 219.912 239.78 220.794C239.418 221.624 239.03 222.377 238.617 223.052C238.203 223.726 237.919 224.194 237.764 224.453C237.195 225.335 236.42 226.659 235.437 228.424C234.455 230.188 233.628 231.901 232.956 233.562C232.749 234.133 232.542 234.73 232.335 235.353C232.18 235.924 232.103 236.417 232.103 236.832C232.103 237.507 232.387 237.844 232.956 237.844C233.473 237.844 234.222 237.585 235.205 237.066C236.445 236.391 237.583 235.534 238.617 234.496C239.702 233.406 240.633 232.472 241.408 231.694C241.46 231.642 241.693 231.382 242.106 230.915C242.572 230.448 243.011 229.981 243.425 229.514C243.89 229.047 244.123 228.813 244.123 228.813C244.329 228.553 244.588 228.424 244.898 228.424C245.157 228.424 245.389 228.579 245.596 228.891C245.855 229.15 245.984 229.488 245.984 229.903C245.984 230.37 245.855 230.759 245.596 231.071C244.821 232.161 243.761 233.354 242.417 234.652C241.072 235.95 239.883 237.014 238.849 237.844C237.764 238.674 236.652 239.323 235.515 239.79C234.377 240.258 233.343 240.491 232.413 240.491C231.431 240.491 230.603 240.206 229.931 239.635C229.311 239.064 229.001 238.155 229.001 236.91C229.001 235.768 229.259 234.496 229.776 233.095C230.5 230.967 231.56 228.865 232.956 226.789C234.403 224.713 235.592 222.714 236.523 220.794C232.749 223.026 229.259 225.751 226.054 228.969C222.849 232.187 220.109 235.586 217.834 239.168C217.782 239.583 217.731 239.998 217.679 240.413C217.679 240.828 217.524 241.14 217.214 241.347C216.955 241.555 216.671 241.659 216.36 241.659ZM244.665 195.725C243.683 195.725 242.52 196.27 241.176 197.36C239.832 198.45 238.436 199.877 236.988 201.642C235.592 203.355 234.196 205.223 232.801 207.247C231.405 209.22 230.138 211.14 229.001 213.009C227.863 214.825 226.959 216.33 226.287 217.524C228.355 216.797 230.578 215.656 232.956 214.099C235.334 212.541 237.583 210.673 239.702 208.493C241.822 206.313 243.58 203.9 244.976 201.253C245.389 200.422 245.674 199.721 245.829 199.15C246.035 198.528 246.139 198.009 246.139 197.593C246.139 196.867 245.958 196.374 245.596 196.114C245.286 195.855 244.976 195.725 244.665 195.725Z" fill="white" fill-opacity="0.8" shape-rendering="crispEdges"/>
<path d="M245.553 241.425C244.105 241.425 243.02 241.01 242.296 240.18C241.624 239.297 241.288 238.207 241.288 236.91C241.288 235.457 241.701 233.77 242.529 231.849C243.408 229.877 244.545 227.853 245.941 225.777C247.337 223.701 248.862 221.78 250.516 220.015C252.222 218.199 253.928 216.746 255.634 215.656C257.34 214.514 258.917 213.943 260.365 213.943C261.347 213.943 262.303 214.099 263.234 214.41C264.165 214.669 264.914 215.214 265.483 216.045C266.103 216.875 266.413 218.095 266.413 219.704C266.413 220.275 266.258 220.69 265.948 220.95C265.638 221.209 265.354 221.339 265.095 221.339C264.526 221.339 264.242 221.131 264.242 220.716C263.984 219.055 263.441 217.965 262.614 217.446C261.838 216.927 261.088 216.668 260.365 216.668C259.331 216.668 258.116 217.187 256.72 218.225C255.324 219.263 253.902 220.586 252.455 222.195C251.007 223.804 249.637 225.543 248.345 227.412C247.104 229.228 246.096 230.993 245.32 232.706C244.545 234.367 244.157 235.742 244.157 236.832C244.157 237.351 244.235 237.818 244.39 238.233C244.597 238.649 244.907 238.856 245.32 238.856C246.096 238.856 247.104 238.441 248.345 237.61C249.585 236.78 250.904 235.716 252.3 234.418C253.747 233.069 255.169 231.668 256.565 230.214C257.961 228.761 259.227 227.386 260.365 226.088C261.502 224.79 262.381 223.752 263.001 222.974C263.311 222.507 263.699 222.273 264.164 222.273C264.526 222.273 264.862 222.403 265.173 222.662C265.483 222.922 265.638 223.259 265.638 223.675C265.638 223.882 265.56 224.116 265.405 224.375C265.043 224.946 264.604 225.751 264.087 226.789C263.622 227.827 263.131 228.943 262.614 230.136C262.148 231.33 261.735 232.446 261.373 233.484C261.063 234.47 260.907 235.223 260.907 235.742C260.907 236.261 261.088 236.521 261.45 236.521C261.709 236.521 262.019 236.391 262.381 236.131C262.794 235.872 263.156 235.638 263.467 235.431C264.707 234.393 265.896 233.303 267.034 232.161C268.171 230.967 269.205 229.851 270.136 228.813C270.342 228.553 270.601 228.424 270.911 228.424C271.17 228.424 271.402 228.579 271.609 228.891C271.868 229.15 271.997 229.488 271.997 229.903C271.997 230.37 271.868 230.759 271.609 231.071C270.782 232.161 269.696 233.38 268.352 234.73C267.008 236.027 265.819 237.066 264.785 237.844C264.113 238.311 263.311 238.778 262.381 239.245C261.502 239.661 260.649 239.868 259.822 239.868C259.201 239.868 258.684 239.687 258.271 239.323C257.857 238.908 257.65 238.207 257.65 237.221C257.65 236.443 257.78 235.56 258.038 234.574C258.297 233.588 258.607 232.576 258.969 231.538C257.521 233.095 255.97 234.626 254.316 236.131C252.662 237.636 251.059 238.908 249.508 239.946C248.009 240.932 246.69 241.425 245.553 241.425Z" fill="white" fill-opacity="0.8" shape-rendering="crispEdges"/>
<path d="M272.616 240.491C271.168 240.491 270.083 240.076 269.359 239.245C268.687 238.363 268.351 237.273 268.351 235.976C268.351 234.522 268.764 232.835 269.592 230.915C270.471 228.943 271.608 226.919 273.004 224.842C274.4 222.766 275.925 220.846 277.579 219.081C279.285 217.265 280.991 215.811 282.697 214.721C284.403 213.579 285.98 213.009 287.428 213.009C291.46 213.009 293.476 214.851 293.476 218.536C293.476 219.211 293.321 219.704 293.011 220.015C292.701 220.275 292.391 220.405 292.08 220.405C291.667 220.405 291.408 220.197 291.305 219.782C291.098 218.121 290.581 217.031 289.754 216.512C288.927 215.993 288.151 215.733 287.428 215.733C286.394 215.733 285.179 216.252 283.783 217.291C282.387 218.329 280.965 219.652 279.518 221.261C278.07 222.87 276.7 224.609 275.408 226.477C274.167 228.294 273.159 230.059 272.383 231.771C271.608 233.432 271.22 234.808 271.22 235.898C271.22 236.417 271.298 236.884 271.453 237.299C271.66 237.714 271.97 237.922 272.383 237.922C273.159 237.922 274.167 237.507 275.408 236.676C276.648 235.846 277.993 234.782 279.44 233.484C280.888 232.187 282.309 230.811 283.705 229.358C285.153 227.905 286.42 226.529 287.505 225.232C288.643 223.934 289.496 222.87 290.064 222.04C290.323 221.624 290.659 221.417 291.072 221.417C291.9 221.417 292.313 221.91 292.313 222.896C292.313 223 292.287 223.13 292.236 223.285C292.236 223.389 292.21 223.519 292.158 223.675C291.641 225.647 290.866 227.983 289.832 230.681C288.849 233.38 287.738 236.183 286.497 239.09C286.962 239.142 287.453 239.245 287.97 239.401C288.643 239.557 288.979 239.972 288.979 240.647C288.979 241.01 288.798 241.373 288.436 241.737C288.126 242.1 287.712 242.204 287.195 242.048C286.833 241.944 286.471 241.867 286.109 241.815C285.799 241.763 285.541 241.737 285.334 241.737C283.783 245.11 282.18 248.354 280.526 251.469C278.872 254.635 277.321 257.308 275.873 259.488C274.581 261.356 273.133 263.147 271.53 264.859C269.928 266.624 268.222 268.052 266.412 269.141C264.603 270.231 262.767 270.776 260.906 270.776C258.838 270.776 257.236 270.257 256.098 269.219C254.961 268.181 254.392 266.806 254.392 265.093C254.392 263.536 254.806 261.797 255.633 259.877C256.408 257.956 257.494 256.036 258.89 254.116C260.596 251.78 262.716 249.496 265.249 247.264C267.834 245.033 270.677 243.164 273.779 241.659C276.881 240.206 280.112 239.349 283.473 239.09C284.3 237.169 285.075 235.353 285.799 233.64C286.523 231.875 287.143 230.266 287.66 228.813C284.455 232.498 281.508 235.379 278.82 237.455C276.183 239.479 274.115 240.491 272.616 240.491ZM257.262 264.782C257.262 265.716 257.546 266.494 258.115 267.117C258.683 267.74 259.691 268.051 261.139 268.051C262.897 268.051 264.706 267.273 266.567 265.716C268.428 264.211 270.264 262.186 272.073 259.643C273.934 257.1 275.718 254.297 277.424 251.235C279.13 248.173 280.707 245.059 282.154 241.892C279.311 242.308 276.571 243.19 273.934 244.54C271.298 245.941 268.868 247.602 266.645 249.522C264.473 251.494 262.638 253.545 261.139 255.673C260.725 256.244 260.208 257.048 259.588 258.086C258.968 259.176 258.425 260.292 257.959 261.434C257.494 262.628 257.262 263.744 257.262 264.782Z" fill="white" fill-opacity="0.8" shape-rendering="crispEdges"/>
<path d="M301.585 242.204C299.982 242.204 298.612 241.711 297.475 240.725C296.389 239.738 295.846 238.026 295.846 235.586C295.846 233.925 296.26 231.979 297.087 229.747C297.966 227.515 299.129 225.361 300.577 223.285C302.024 221.157 303.627 219.419 305.385 218.069C307.143 216.668 308.926 215.967 310.736 215.967C311.925 215.967 312.804 216.408 313.372 217.291C313.993 218.121 314.303 219.133 314.303 220.327C314.303 222.092 313.734 223.804 312.597 225.465C311.459 227.126 310.012 228.476 308.254 229.514C306.548 230.552 304.842 231.071 303.136 231.071C301.74 231.071 300.68 230.63 299.956 229.747C299.543 230.785 299.207 231.797 298.948 232.784C298.69 233.77 298.561 234.704 298.561 235.586C298.561 237.091 298.871 238.155 299.491 238.778C300.163 239.349 300.99 239.635 301.973 239.635C303.162 239.635 304.48 239.323 305.928 238.7C307.427 238.078 308.823 237.351 310.115 236.521C311.408 235.638 312.364 234.912 312.985 234.341C314.018 233.458 315.001 232.498 315.931 231.46C316.914 230.37 317.767 229.358 318.49 228.424C318.749 228.112 319.033 227.957 319.343 227.957C319.654 227.957 319.912 228.112 320.119 228.424C320.377 228.683 320.507 229.021 320.507 229.436C320.507 229.799 320.377 230.162 320.119 230.526C319.292 231.564 318.258 232.758 317.017 234.107C315.828 235.405 314.484 236.624 312.985 237.766C312.157 238.441 311.097 239.116 309.805 239.79C308.513 240.465 307.143 241.036 305.695 241.503C304.299 241.97 302.929 242.204 301.585 242.204ZM302.981 228.579C304.015 228.579 305.126 228.242 306.315 227.567C307.556 226.893 308.642 226.01 309.572 224.92C310.555 223.778 311.201 222.559 311.511 221.261C311.563 221.157 311.589 221.028 311.589 220.872C311.589 220.716 311.589 220.586 311.589 220.483C311.589 219.548 311.253 219.081 310.581 219.081C309.495 219.081 308.357 219.496 307.168 220.327C305.979 221.105 304.842 222.169 303.756 223.519C302.722 224.816 301.792 226.244 300.965 227.801C301.171 227.957 301.378 228.112 301.585 228.268C301.792 228.372 301.999 228.45 302.205 228.502C302.309 228.553 302.438 228.579 302.593 228.579C302.748 228.579 302.877 228.579 302.981 228.579Z" fill="white" fill-opacity="0.8" shape-rendering="crispEdges"/>
<path d="M317.058 242.827C316.696 242.827 316.36 242.697 316.05 242.437C315.74 242.178 315.585 241.867 315.585 241.503C315.585 241.399 315.636 241.192 315.74 240.88C316.774 238.649 317.782 236.624 318.764 234.808C319.798 232.939 320.858 231.123 321.944 229.358C322.409 228.631 322.926 227.697 323.495 226.555C324.115 225.361 324.71 224.09 325.278 222.74C325.847 221.339 326.312 220.015 326.674 218.77C327.088 217.524 327.294 216.512 327.294 215.733C327.294 215.318 327.269 215.033 327.217 214.877C327.165 214.825 327.139 214.721 327.139 214.566C327.139 214.15 327.32 213.813 327.682 213.554C328.096 213.242 328.484 213.086 328.845 213.086C329.259 213.086 329.647 213.294 330.009 213.709C330.371 214.073 330.552 214.721 330.552 215.656C330.552 216.434 330.371 217.472 330.009 218.77C329.698 220.015 329.156 221.521 328.38 223.285C327.967 224.168 327.579 224.998 327.217 225.777C326.855 226.503 326.493 227.204 326.131 227.879C328.148 225.751 330.215 223.856 332.335 222.195C334.455 220.483 336.342 219.133 337.996 218.147C339.65 217.161 340.762 216.668 341.331 216.668C341.951 216.668 342.39 216.849 342.649 217.213C342.907 217.576 343.037 217.991 343.037 218.458C343.037 219.133 342.83 219.912 342.416 220.794C342.054 221.624 341.667 222.377 341.253 223.052C340.84 223.726 340.555 224.194 340.4 224.453C339.831 225.335 339.056 226.659 338.074 228.424C337.091 230.188 336.264 231.901 335.592 233.562C335.385 234.133 335.179 234.73 334.972 235.353C334.817 235.924 334.739 236.417 334.739 236.832C334.739 237.507 335.023 237.844 335.592 237.844C336.109 237.844 336.859 237.585 337.841 237.066C339.082 236.391 340.219 235.534 341.253 234.496C342.339 233.406 343.269 232.472 344.045 231.694C344.097 231.642 344.329 231.382 344.743 230.915C345.208 230.448 345.647 229.981 346.061 229.514C346.526 229.047 346.759 228.813 346.759 228.813C346.966 228.553 347.224 228.424 347.534 228.424C347.793 228.424 348.026 228.579 348.232 228.891C348.491 229.15 348.62 229.488 348.62 229.903C348.62 230.37 348.491 230.759 348.232 231.071C347.457 232.161 346.397 233.354 345.053 234.652C343.709 235.95 342.52 237.014 341.486 237.844C340.4 238.674 339.289 239.349 338.151 239.868C337.066 240.335 335.98 240.569 334.894 240.569C333.964 240.569 333.188 240.387 332.568 240.024C331.947 239.661 331.637 238.7 331.637 237.143C331.637 235.171 332.128 233.225 333.111 231.304C334.145 229.384 335.282 227.489 336.523 225.621C337.815 223.752 338.875 221.988 339.702 220.327C338.41 221.105 336.678 222.299 334.506 223.908C332.387 225.517 330.138 227.412 327.76 229.592C325.433 231.72 323.314 234.055 321.401 236.598C321.039 237.273 320.651 238 320.238 238.778C319.824 239.557 319.41 240.413 318.997 241.347C318.532 242.334 317.885 242.827 317.058 242.827Z" fill="white" fill-opacity="0.8" shape-rendering="crispEdges"/>
</g>
<defs>
<filter id="filter0_f_7_235" x="45.0407" y="191.749" width="310.165" height="90.3209" filterUnits="userSpaceOnUse" color-interpolation-filters="sRGB">
<feFlood flood-opacity="0" result="BackgroundImageFix"/>
<feBlend mode="normal" in="SourceGraphic" in2="BackgroundImageFix" result="shape"/>
<feGaussianBlur stdDeviation="3.13614" result="effect1_foregroundBlur_7_235"/>
</filter>
<filter id="filter1_ddddii_7_235" x="42.5318" y="184.849" width="315.183" height="95.3388" filterUnits="userSpaceOnUse" color-interpolation-filters="sRGB">
<feFlood flood-opacity="0" result="BackgroundImageFix"/>
<feColorMatrix in="SourceAlpha" type="matrix" values="0 0 0 0 0 0 0 0 0 0 0 0 0 0 0 0 0 0 127 0" result="hardAlpha"/>
<feOffset/>
<feGaussianBlur stdDeviation="3.13614"/>
<feComposite in2="hardAlpha" operator="out"/>
<feColorMatrix type="matrix" values="0 0 0 0 0.776471 0 0 0 0 0.0470588 0 0 0 0 0.188235 0 0 0 1 0"/>
<feBlend mode="normal" in2="BackgroundImageFix" result="effect1_dropShadow_7_235"/>
<feColorMatrix in="SourceAlpha" type="matrix" values="0 0 0 0 0 0 0 0 0 0 0 0 0 0 0 0 0 0 127 0" result="hardAlpha"/>
<feOffset/>
<feGaussianBlur stdDeviation="4.3906"/>
<feComposite in2="hardAlpha" operator="out"/>
<feColorMatrix type="matrix" values="0 0 0 0 0.776471 0 0 0 0 0.0470588 0 0 0 0 0.188235 0 0 0 1 0"/>
<feBlend mode="normal" in2="effect1_dropShadow_7_235" result="effect2_dropShadow_7_235"/>
<feColorMatrix in="SourceAlpha" type="matrix" values="0 0 0 0 0 0 0 0 0 0 0 0 0 0 0 0 0 0 127 0" result="hardAlpha"/>
<feOffset/>
<feGaussianBlur stdDeviation="0.627229"/>
<feComposite in2="hardAlpha" operator="out"/>
<feColorMatrix type="matrix" values="0 0 0 0 0.776471 0 0 0 0 0.0470588 0 0 0 0 0.188235 0 0 0 1 0"/>
<feBlend mode="normal" in2="effect2_dropShadow_7_235" result="effect3_dropShadow_7_235"/>
<feColorMatrix in="SourceAlpha" type="matrix" values="0 0 0 0 0 0 0 0 0 0 0 0 0 0 0 0 0 0 127 0" result="hardAlpha"/>
<feOffset/>
<feGaussianBlur stdDeviation="0.627229"/>
<feComposite in2="hardAlpha" operator="out"/>
<feColorMatrix type="matrix" values="0 0 0 0 0.776471 0 0 0 0 0.0470588 0 0 0 0 0.188235 0 0 0 1 0"/>
<feBlend mode="normal" in2="effect3_dropShadow_7_235" result="effect4_dropShadow_7_235"/>
<feBlend mode="normal" in="SourceGraphic" in2="effect4_dropShadow_7_235" result="shape"/>
<feColorMatrix in="SourceAlpha" type="matrix" values="0 0 0 0 0 0 0 0 0 0 0 0 0 0 0 0 0 0 127 0" result="hardAlpha"/>
<feOffset/>
<feGaussianBlur stdDeviation="0.313614"/>
<feComposite in2="hardAlpha" operator="arithmetic" k2="-1" k3="1"/>
<feColorMatrix type="matrix" values="0 0 0 0 0.776471 0 0 0 0 0.0470588 0 0 0 0 0.188235 0 0 0 1 0"/>
<feBlend mode="normal" in2="shape" result="effect5_innerShadow_7_235"/>
<feColorMatrix in="SourceAlpha" type="matrix" values="0 0 0 0 0 0 0 0 0 0 0 0 0 0 0 0 0 0 127 0" result="hardAlpha"/>
<feOffset/>
<feGaussianBlur stdDeviation="0.627229"/>
<feComposite in2="hardAlpha" operator="arithmetic" k2="-1" k3="1"/>
<feColorMatrix type="matrix" values="0 0 0 0 0.776471 0 0 0 0 0.0470588 0 0 0 0 0.188235 0 0 0 1 0"/>
<feBlend mode="normal" in2="effect5_innerShadow_7_235" result="effect6_innerShadow_7_235"/>
</filter>
<filter id="filter2_df_7_235" x="32.8104" y="174.81" width="333.999" height="114.156" filterUnits="userSpaceOnUse" color-interpolation-filters="sRGB">
<feFlood flood-opacity="0" result="BackgroundImageFix"/>
<feColorMatrix in="SourceAlpha" type="matrix" values="0 0 0 0 0 0 0 0 0 0 0 0 0 0 0 0 0 0 127 0" result="hardAlpha"/>
<feOffset/>
<feGaussianBlur stdDeviation="9.09482"/>
<feComposite in2="hardAlpha" operator="out"/>
<feColorMatrix type="matrix" values="0 0 0 0 0.776471 0 0 0 0 0.0470588 0 0 0 0 0.188235 0 0 0 1 0"/>
<feBlend mode="normal" in2="BackgroundImageFix" result="effect1_dropShadow_7_235"/>
<feBlend mode="normal" in="SourceGraphic" in2="effect1_dropShadow_7_235" result="shape"/>
<feGaussianBlur stdDeviation="0.312963" result="effect2_foregroundBlur_7_235"/>
</filter>
</defs>
</svg>
